<svg id="Layer_1" data-name="Layer 1" xmlns="http://www.w3.org/2000/svg" width="6.21in" height="4.38in" viewBox="0 0 447.04 315.7"><defs><style>.cls-1{fill:#c4c4c4;}.cls-2{fill:#009468;}.cls-3{fill:#ff2e5f;}.cls-4{fill:#0070e2;}.cls-5{fill:#f7b200;}</style></defs><g id="triangle36"><path class="cls-1" d="M186.64,262.41a.14.14,0,0,1-.12-.09L170.34,226.7a.15.15,0,0,1,0-.17.16.16,0,0,1,.16,0l26.12,9.34a.14.14,0,0,1,.09.08.11.11,0,0,1,0,.11l-9.94,26.3a.14.14,0,0,1-.13.09Zm-15.89-35.52,15.89,35,9.76-25.82Z"/></g><g id="triangle36-2" data-name="triangle36"><path class="cls-1" d="M375.64,168.17h0l-54.72-19.43a.14.14,0,0,1-.1-.15.14.14,0,0,1,.12-.14l84.91-14.13a.15.15,0,0,1,.16.08.15.15,0,0,1,0,.17l-30.19,33.56A.17.17,0,0,1,375.64,168.17Zm-54.12-19.53,54.09,19.2,29.83-33.16Z"/></g><g id="triangle36-3" data-name="triangle36"><path class="cls-1" d="M267.12,66.66a.15.15,0,0,1-.14-.11.16.16,0,0,1,.08-.17l29.13-15a.14.14,0,0,1,.19,0,.15.15,0,0,1,0,.19L282,66.51a.21.21,0,0,1-.1,0l-14.72.11ZM295.53,52,267.75,66.36l14-.11ZM281.84,66.4h0Z"/></g><g id="triangle36-4" data-name="triangle36"><path class="cls-1" d="M296.25,51.64s-.05,0-.07,0L227.83,8.29a.19.19,0,0,1-.07-.12.14.14,0,0,1,.06-.12l8.34-6.61a.14.14,0,0,1,.19,0l60,49.93a.15.15,0,0,1,0,.21A.16.16,0,0,1,296.25,51.64ZM228.17,8.15l66.23,42L236.25,1.75Z"/></g><g id="triangle36-5" data-name="triangle36"><path class="cls-1" d="M267.12,66.66a.14.14,0,0,1-.12-.06L227.79,8.25a.17.17,0,0,1,0-.19A.15.15,0,0,1,228,8l68.35,43.32a.15.15,0,0,1,.07.13.13.13,0,0,1-.08.13l-29.14,15A.09.09,0,0,1,267.12,66.66Zm-38.69-58,38.75,57.65L296,51.47Z"/></g><g id="triangle36-6" data-name="triangle36"><path class="cls-1" d="M119.35,232h0l-45.12-9a.15.15,0,0,1,0-.29L121,219.2a.13.13,0,0,1,.12.05.13.13,0,0,1,0,.12L119.5,231.9a.11.11,0,0,1-.06.1A.14.14,0,0,1,119.35,232Zm-44-9.11,43.9,8.78,1.57-12.19Z"/></g><g id="triangle36-7" data-name="triangle36"><path class="cls-1" d="M119.35,232a.18.18,0,0,1-.1,0,.16.16,0,0,1,0-.13l1.61-12.53a.11.11,0,0,1,.06-.1.14.14,0,0,1,.11,0l49.51,7.29a.14.14,0,0,1,.12.15.15.15,0,0,1-.13.14L119.37,232Zm1.74-12.51-1.56,12.19,49.74-5.1Z"/></g><g id="triangle36-8" data-name="triangle36"><path class="cls-1" d="M170.46,226.78h0l-49.51-7.28a.16.16,0,0,1-.12-.13.15.15,0,0,1,.09-.16l45.74-17.4a.15.15,0,0,1,.13,0,.12.12,0,0,1,.07.11l3.77,24.68a.15.15,0,0,1,0,.13A.13.13,0,0,1,170.46,226.78Zm-48.91-7.49,48.75,7.17-3.71-24.31Z"/></g><g id="triangle36-9" data-name="triangle36"><path class="cls-1" d="M2.45,275.78l-.09,0a.15.15,0,0,1,0-.18l19.38-42.48a.14.14,0,0,1,.25,0l16.16,21.32a.13.13,0,0,1,0,.12.14.14,0,0,1-.07.1L2.54,275.76A.1.1,0,0,1,2.45,275.78Zm19.42-42.34L2.79,275.26l35-20.83Z"/></g><g id="triangle36-10" data-name="triangle36"><path class="cls-1" d="M156.77,271.79a.19.19,0,0,1-.1-.05L119.25,232a.14.14,0,0,1,0-.15.17.17,0,0,1,.12-.1l51.12-5.24a.13.13,0,0,1,.13,0,.17.17,0,0,1,0,.14l-13.7,45a.13.13,0,0,1-.11.1ZM119.67,232l37,39.35,13.56-44.54Z"/></g><g id="triangle36-11" data-name="triangle36"><path class="cls-1" d="M165.11,282.11a.13.13,0,0,1-.1-.06l-8.35-10.32a.13.13,0,0,1,0-.13.13.13,0,0,1,.1-.1l29.87-9.38a.14.14,0,0,1,.17.07.13.13,0,0,1,0,.18l-21.53,19.7A.15.15,0,0,1,165.11,282.11ZM157,271.71l8.11,10,20.92-19.13Z"/></g><g id="triangle36-12" data-name="triangle36"><path class="cls-1" d="M156.77,271.79a.16.16,0,0,1-.09-.05.12.12,0,0,1,0-.14l13.69-45a.14.14,0,0,1,.13-.1.15.15,0,0,1,.15.08l16.18,35.63a.13.13,0,0,1,0,.12.14.14,0,0,1-.09.08l-29.88,9.38Zm13.73-44.74L157,271.41l29.45-9.24Z"/></g><g id="triangle36-13" data-name="triangle36"><path class="cls-1" d="M320.92,148.74a.15.15,0,0,1-.13-.1.14.14,0,0,1,.06-.18l68.4-39.88a.15.15,0,0,1,.2,0L406,134.38a.14.14,0,0,1,0,.14.14.14,0,0,1-.11.09L321,148.74Zm68.36-39.83-67.58,39.4,83.89-14Z"/></g><g id="triangle36-14" data-name="triangle36"><path class="cls-1" d="M299.08,168.29H299a.15.15,0,0,1-.09-.13L296.56,144a.12.12,0,0,1,.05-.12.15.15,0,0,1,.13,0L321,148.44a.15.15,0,0,1,.08.26l-21.84,19.56A.14.14,0,0,1,299.08,168.29Zm-2.21-24.08,2.34,23.63,21.39-19.16Z"/></g><g id="triangle36-15" data-name="triangle36"><path class="cls-1" d="M186.64,262.41a.16.16,0,0,1-.1-.05.2.2,0,0,1,0-.15l10-26.29a.14.14,0,0,1,.17-.1L249,247.7a.16.16,0,0,1,0,.3l-62.31,14.41Zm10.05-26.27-9.8,25.92,61.41-14.21Z"/></g><g id="triangle36-16" data-name="triangle36"><path class="cls-1" d="M249,248h0l-52.37-11.89a.14.14,0,0,1-.11-.11.14.14,0,0,1,.06-.15l15.13-11.29a.14.14,0,0,1,.16,0L249,247.72a.15.15,0,0,1,.06.19A.14.14,0,0,1,249,248Zm-52-12.11,51.2,11.62-36.41-22.65Z"/></g><g id="triangle36-17" data-name="triangle36"><path class="cls-1" d="M249,248l-.07,0L211.65,224.8a.15.15,0,0,1,0-.27l33.94-8.63a.17.17,0,0,1,.12,0,.14.14,0,0,1,.06.11l3.3,31.8a.15.15,0,0,1-.07.15ZM212.1,224.73l36.69,22.83-3.26-31.33Z"/></g><g id="triangle36-18" data-name="triangle36"><path class="cls-1" d="M294.41,174.43a.16.16,0,0,1-.11-.05l-22.49-26.15a.15.15,0,0,1,0-.2.17.17,0,0,1,.2,0l27.17,20a.17.17,0,0,1,.06.1.26.26,0,0,1,0,.11l-4.67,6.13a.14.14,0,0,1-.12.06ZM272.89,149l21.52,25,4.47-5.86Z"/></g><g id="triangle36-19" data-name="triangle36"><path class="cls-1" d="M320.92,148.74a.14.14,0,0,1-.11-.06L298.13,120.5a.16.16,0,0,1,0-.15.14.14,0,0,1,.12-.09l91.08-11.7a.14.14,0,0,1,.16.1.15.15,0,0,1-.07.17L321,148.72Zm-22.39-28.22L321,148.4,388.62,109Z"/></g><g id="triangle36-20" data-name="triangle36"><path class="cls-1" d="M284.37,245.78a.13.13,0,0,1-.13-.13l-3.57-27.77a.14.14,0,0,1,.1-.16.16.16,0,0,1,.18.07l14.46,28a.14.14,0,0,1,0,.14.13.13,0,0,1-.13.07l-10.9-.23Zm-3.3-27.1,3.44,26.81,10.52.22Z"/></g><g id="triangle36-21" data-name="triangle36"><path class="cls-1" d="M284.49,246.38a.13.13,0,0,1-.13-.12l-.12-.6a.13.13,0,0,1,0-.12.14.14,0,0,1,.12-.06l10.89.24a.15.15,0,0,1,.15.15.14.14,0,0,1-.14.14l-10.78.37Zm.07-.6.06.3,5.33-.18Z"/></g><g id="triangle36-22" data-name="triangle36"><path class="cls-1" d="M250.56,313.08h0l-85.45-31A.14.14,0,0,1,165,282a.14.14,0,0,1,0-.14l21.53-19.7a.15.15,0,0,1,.2,0l63.91,50.66a.14.14,0,0,1,0,.19A.16.16,0,0,1,250.56,313.08ZM165.4,281.9l84.36,30.58-63.1-50Z"/></g><g id="triangle36-23" data-name="triangle36"><path class="cls-1" d="M250.56,313.08l-.08,0-63.92-50.66a.17.17,0,0,1-.05-.15.13.13,0,0,1,.11-.11l62.31-14.41a.2.2,0,0,1,.13,0,.17.17,0,0,1,.05.12l1.61,65.07a.15.15,0,0,1-.08.14ZM187,262.34l63.42,50.27L248.82,248Z"/></g><g id="triangle36-24" data-name="triangle36"><path class="cls-1" d="M250.56,313.08s-.05,0-.07,0a.14.14,0,0,1-.07-.12l-1.6-65.08a.14.14,0,0,1,.12-.15.15.15,0,0,1,.16.09l22.45,56a.14.14,0,0,1-.08.19l-20.84,9.13Zm-1.43-64.41,1.58,64,20.51-9Z"/></g><g id="triangle36-25" data-name="triangle36"><path class="cls-1" d="M331.46,236.81h0L280.77,218a.13.13,0,0,1-.09-.09.15.15,0,0,1,0-.13l22-36a.17.17,0,0,1,.13-.07.14.14,0,0,1,.13.08l28.69,54.8a.15.15,0,0,1,0,.17A.11.11,0,0,1,331.46,236.81Zm-50.42-19,50.12,18.61-28.39-54.23Z"/></g><g id="triangle36-26" data-name="triangle36"><path class="cls-1" d="M302.77,182a.18.18,0,0,1-.09,0l-8.36-7.58a.14.14,0,0,1,0-.2l4.67-6.13a.14.14,0,0,1,.15-.06.14.14,0,0,1,.11.11l3.69,13.71a.16.16,0,0,1-.06.17Zm-8.15-7.75,7.88,7.15L299,168.48Z"/></g><g id="triangle36-27" data-name="triangle36"><path class="cls-1" d="M302.77,182h0a.14.14,0,0,1-.12-.11l-3.7-13.71A.16.16,0,0,1,299,168l21.84-19.56a.15.15,0,0,1,.19,0,.16.16,0,0,1,0,.19l-18.15,33.27A.16.16,0,0,1,302.77,182Zm-3.51-13.81,3.57,13.26,17.55-32.18Z"/></g><g id="triangle36-28" data-name="triangle36"><path class="cls-1" d="M302.77,182a.24.24,0,0,1-.11-.06.15.15,0,0,1,0-.16l18.15-33.27a.14.14,0,0,1,.18-.07l54.72,19.43a.15.15,0,0,1,.1.15.15.15,0,0,1-.12.13L302.81,182ZM321,148.77l-17.94,32.88,72-13.68Z"/></g><g id="triangle36-29" data-name="triangle36"><path class="cls-1" d="M331.46,236.81a.13.13,0,0,1-.12-.08l-28.69-54.8a.15.15,0,0,1,.21-.2L369,225.27a.15.15,0,0,1,.07.15.16.16,0,0,1-.11.12l-37.43,11.27ZM303.18,182.3l28.36,54.19,37-11.14Z"/></g><g id="triangle36-30" data-name="triangle36"><path class="cls-1" d="M296.25,51.64a.2.2,0,0,1-.08,0l-60-49.93a.16.16,0,0,1,0-.17.13.13,0,0,1,.15-.09l87,2.33a.15.15,0,0,1,.12.08.14.14,0,0,1,0,.15l-27,47.59a.12.12,0,0,1-.1.07ZM236.68,1.71l59.54,49.55L323,4Z"/></g><g id="triangle36-31" data-name="triangle36"><path class="cls-1" d="M266.42,106.44h0l-43.94-5.26a.13.13,0,0,1-.13-.12.15.15,0,0,1,.07-.16l23.76-12.51a.14.14,0,0,1,.16,0l20.2,17.77a.14.14,0,0,1,0,.17A.14.14,0,0,1,266.42,106.44ZM223,101l43,5.13L246.21,88.7Z"/></g><g id="triangle36-32" data-name="triangle36"><path class="cls-1" d="M38,254.62a.14.14,0,0,1-.11-.06L21.72,233.24a.14.14,0,0,1,0-.14.18.18,0,0,1,.11-.1l21.38-5.28a.13.13,0,0,1,.13,0,.15.15,0,0,1,0,.14l-5.22,26.6a.13.13,0,0,1-.11.11ZM22.1,233.24l15.82,20.87,5.11-26Z"/></g><g id="triangle36-33" data-name="triangle36"><path class="cls-1" d="M21.83,233.3a.19.19,0,0,1-.11-.07.14.14,0,0,1,0-.17l20-29.81a.18.18,0,0,1,.17-.06.16.16,0,0,1,.11.14l1.4,24.53a.14.14,0,0,1-.11.15l-21.38,5.28ZM41.7,203.79,22.18,232.91l20.89-5.16Z"/></g><g id="triangle36-34" data-name="triangle36"><path class="cls-1" d="M211.72,224.82a.12.12,0,0,1-.1,0,.17.17,0,0,1,0-.15l5.58-17.52a.13.13,0,0,1,.18-.09l28.37,8.88a.15.15,0,0,1,.1.15.16.16,0,0,1-.11.14l-33.94,8.63S211.73,224.83,211.72,224.82Zm5.67-17.48L212,224.47,245.12,216Z"/></g><g id="triangle36-35" data-name="triangle36"><path class="cls-1" d="M232,168.09h0l-11.15-3.7a.15.15,0,0,1-.1-.15.15.15,0,0,1,.1-.14l51-16.1a.16.16,0,0,1,.18.09.15.15,0,0,1-.07.19L232.1,168.08Zm-10.66-3.85L232,167.78l38.12-18.93Z"/></g><g id="triangle36-36" data-name="triangle36"><path class="cls-1" d="M170.46,226.78h0a.14.14,0,0,1-.12-.12L166.56,202a.15.15,0,0,1,.05-.14.16.16,0,0,1,.15,0l14.63,6.2a.14.14,0,0,1,.08.09.16.16,0,0,1,0,.12L170.6,226.71A.13.13,0,0,1,170.46,226.78Zm-3.57-24.59,3.67,24,10.55-18Z"/></g><g id="triangle36-37" data-name="triangle36"><path class="cls-1" d="M196.59,236.12h0l-26.13-9.34a.13.13,0,0,1-.09-.09.17.17,0,0,1,0-.12l10.86-18.49a.17.17,0,0,1,.13-.07.16.16,0,0,1,.13.08l15.27,27.82a.15.15,0,0,1,0,.17A.18.18,0,0,1,196.59,236.12Zm-25.9-9.57,25.59,9.15-15-27.25Z"/></g><g id="triangle36-38" data-name="triangle36"><path class="cls-1" d="M196.59,236.12h0a.17.17,0,0,1-.1-.07L181.2,208.22a.14.14,0,0,1,.2-.2l30.4,16.53a.14.14,0,0,1,.07.12.12.12,0,0,1-.06.13l-15.13,11.29A.14.14,0,0,1,196.59,236.12Zm-14.89-27.6,14.94,27.23,14.81-11.05Z"/></g><g id="triangle36-39" data-name="triangle36"><path class="cls-1" d="M211.72,224.82h-.07l-30.39-16.53a.15.15,0,0,1,.06-.28l36-1a.16.16,0,0,1,.13.06.15.15,0,0,1,0,.13l-5.57,17.52a.16.16,0,0,1-.09.09A.07.07,0,0,1,211.72,224.82Zm-29.83-16.54,29.75,16.18,5.45-17.15Z"/></g><g id="triangle36-40" data-name="triangle36"><path class="cls-1" d="M336,237.35h0l-4.56-.54a.15.15,0,0,1-.13-.13.16.16,0,0,1,.11-.16l37.43-11.27a.14.14,0,0,1,.18.1.14.14,0,0,1-.09.19l-32.88,11.8Zm-3.81-.75,3.8.45,27.49-9.87Z"/></g><g id="triangle36-41" data-name="triangle36"><path class="cls-1" d="M43.21,228l-.06,0a.2.2,0,0,1-.08-.12l-1.4-24.54a.17.17,0,0,1,.08-.14.16.16,0,0,1,.16,0l19.92,14.65a.16.16,0,0,1,.06.13.13.13,0,0,1-.08.12L43.29,228ZM42,203.64l1.38,24L61.46,218Z"/></g><g id="triangle36-42" data-name="triangle36"><path class="cls-1" d="M126.74,135.71a.11.11,0,0,1-.07,0,.14.14,0,0,1-.07-.1l-.87-6a.14.14,0,0,1,0-.11.24.24,0,0,1,.11-.06l30.64-1.69a.14.14,0,0,1,.15.12.15.15,0,0,1-.11.17l-29.76,7.71Zm-.69-6,.82,5.69L155,128.08Z"/></g><g id="triangle36-43" data-name="triangle36"><path class="cls-1" d="M27.92,193.4a.11.11,0,0,1-.08,0L12.1,182.45a.17.17,0,0,1-.06-.16.16.16,0,0,1,.13-.11l41.45-4.93a.15.15,0,0,1,.15.1.14.14,0,0,1-.06.18L28,193.38Zm-15.33-11,15.34,10.64,25-15.44Z"/></g><g id="triangle36-44" data-name="triangle36"><path class="cls-1" d="M21.83,233.3h0a.16.16,0,0,1-.1-.16l6.09-39.9a.16.16,0,0,1,.09-.12.14.14,0,0,1,.14,0l13.9,10.08a.16.16,0,0,1,0,.21L22,233.23A.15.15,0,0,1,21.83,233.3ZM28,193.51l-5.95,39,19.52-29.14Z"/></g><g id="triangle36-45" data-name="triangle36"><path class="cls-1" d="M41.81,203.48l-.08,0L27.84,193.37a.14.14,0,0,1-.06-.13.13.13,0,0,1,.07-.12l25.71-15.84a.14.14,0,0,1,.17,0,.14.14,0,0,1,0,.17L42,203.4a.12.12,0,0,1-.09.08S41.82,203.49,41.81,203.48ZM28.19,193.26l13.57,9.85,11.53-25.32Z"/></g><g id="triangle36-46" data-name="triangle36"><path class="cls-1" d="M85.56,206.82h0l-43.75-3.34a.15.15,0,0,1-.12-.07.17.17,0,0,1,0-.14L53.5,177.34a.16.16,0,0,1,.1-.08.14.14,0,0,1,.13,0l31.94,29.27a.15.15,0,0,1,0,.17A.16.16,0,0,1,85.56,206.82ZM42,203.2l43.11,3.29L53.68,177.65Z"/></g><g id="triangle36-47" data-name="triangle36"><path class="cls-1" d="M61.73,218.14l-.08,0L41.73,203.46a.17.17,0,0,1,0-.18.13.13,0,0,1,.15-.09h0l43.75,3.33a.14.14,0,0,1,.14.12.15.15,0,0,1-.08.16L61.8,218.12Zm-19.4-14.62,19.43,14.3,23.24-11Z"/></g><g id="triangle36-48" data-name="triangle36"><path class="cls-1" d="M74.23,223h0l-12.49-4.87a.16.16,0,0,1-.1-.14.15.15,0,0,1,.09-.14l23.83-11.32a.17.17,0,0,1,.18,0,.15.15,0,0,1,0,.18L74.36,222.94A.15.15,0,0,1,74.23,223Zm-12.11-5,12.06,4.71L85.13,207Z"/></g><g id="triangle36-49" data-name="triangle36"><path class="cls-1" d="M74.23,223a.17.17,0,0,1-.12-.08.15.15,0,0,1,0-.16l11.34-16.19a.14.14,0,0,1,.17-.05L121,219.21a.15.15,0,0,1,0,.29L74.25,223Zm11.4-16.16L74.54,222.69l45.72-3.44Z"/></g><g id="triangle36-50" data-name="triangle36"><path class="cls-1" d="M352.79,249.29l-.07,0-21.33-12.48a.15.15,0,0,1,.1-.27l4.55.53a.11.11,0,0,1,.07,0L352.89,249a.14.14,0,0,1,0,.2A.15.15,0,0,1,352.79,249.29Zm-20.63-12.4L350,247.33l-14-10Z"/></g><g id="triangle36-51" data-name="triangle36"><path class="cls-1" d="M368,307.86h0L329,298.64a.16.16,0,0,1-.1-.08.15.15,0,0,1,0-.13l23.79-49.35a.14.14,0,0,1,.14-.09.14.14,0,0,1,.13.12l15.16,58.57a.15.15,0,0,1,0,.14A.15.15,0,0,1,368,307.86Zm-38.72-9.47,38.52,9.12-15-57.94Z"/></g><g id="triangle36-52" data-name="triangle36"><path class="cls-1" d="M352.79,249.29a.13.13,0,0,1-.08,0l-16.77-11.94a.13.13,0,0,1-.06-.14.13.13,0,0,1,.09-.12l32.88-11.8a.13.13,0,0,1,.17.05.14.14,0,0,1,0,.17l-16.1,23.75a.15.15,0,0,1-.09.06Zm-16.45-12,16.42,11.69,15.76-23.24Z"/></g><g id="triangle36-53" data-name="triangle36"><path class="cls-1" d="M134,291.52h0l-71.63-27a.15.15,0,0,1-.1-.13.17.17,0,0,1,.08-.14l57-32.52a.17.17,0,0,1,.14,0,.12.12,0,0,1,.08.1l14.63,59.49a.15.15,0,0,1,0,.14A.15.15,0,0,1,134,291.52ZM62.7,264.37l71.07,26.76-14.51-59Z"/></g><g id="triangle36-54" data-name="triangle36"><path class="cls-1" d="M134,291.52h0a.13.13,0,0,1-.1-.1l-14.63-59.49a.16.16,0,0,1,.08-.17.15.15,0,0,1,.18,0l37.42,39.76a.15.15,0,0,1,0,.11.14.14,0,0,1-.05.1l-22.8,19.73A.15.15,0,0,1,134,291.52ZM119.64,232.4l14.43,58.7,22.5-19.47Z"/></g><g id="triangle36-55" data-name="triangle36"><path class="cls-1" d="M281.83,66.55a.13.13,0,0,1-.12-.08.14.14,0,0,1,0-.17l14.41-14.92a.16.16,0,0,1,.13,0L350.83,59a.16.16,0,0,1,.13.15.15.15,0,0,1-.14.15l-69,7.3Zm14.49-14.9L282.24,66.21l67.35-7.13Z"/></g><g id="triangle36-56" data-name="triangle36"><path class="cls-1" d="M298.24,120.55h0a.14.14,0,0,1-.11-.1l-16.41-54a.19.19,0,0,1,0-.13.14.14,0,0,1,.11-.07l69-7.3a.16.16,0,0,1,.15.08.15.15,0,0,1,0,.17l-52.56,61.3A.11.11,0,0,1,298.24,120.55Zm-16.2-54,16.27,53.57,52.14-60.81Z"/></g><g id="triangle36-57" data-name="triangle36"><path class="cls-1" d="M350.8,59.25h0l-54.55-7.62a.12.12,0,0,1-.11-.08.17.17,0,0,1,0-.14l27-47.59a.14.14,0,0,1,.26,0L350.94,59a.15.15,0,0,1,0,.16A.16.16,0,0,1,350.8,59.25Zm-54.3-7.88,54.05,7.54L323.24,4.21Z"/></g><g id="triangle36-58" data-name="triangle36"><path class="cls-1" d="M298.24,120.55a.14.14,0,0,1-.12-.07.15.15,0,0,1,0-.17L350.7,59a.14.14,0,0,1,.11,0,.16.16,0,0,1,.12.06l38.52,49.6a.16.16,0,0,1,0,.15.14.14,0,0,1-.12.09l-91.08,11.7ZM350.8,59.34l-52.19,60.87,90.44-11.62Z"/></g><g id="triangle36-59" data-name="triangle36"><path class="cls-1" d="M389.32,108.85a.16.16,0,0,1-.11,0L350.69,59.19a.15.15,0,0,1,0-.17.15.15,0,0,1,.16-.06l37.27,8.15a.14.14,0,0,1,.12.14l1.25,41.45a.16.16,0,0,1-.1.15S389.34,108.86,389.32,108.85ZM351.18,59.33l38,48.92-1.24-40.87Z"/></g><g id="triangle36-60" data-name="triangle36"><path class="cls-1" d="M352.79,249.29a.14.14,0,0,1-.11-.06.14.14,0,0,1,0-.17l16.1-23.75a.15.15,0,0,1,.19-.05l19.74,10.23a.17.17,0,0,1,.08.14.15.15,0,0,1-.1.13l-35.84,13.52ZM369,225.59l-15.76,23.25,35.08-13.24Z"/></g><g id="triangle36-61" data-name="triangle36"><path class="cls-1" d="M368,307.86a.15.15,0,0,1-.14-.11l-15.15-58.57a.16.16,0,0,1,.09-.18l35.84-13.51a.14.14,0,0,1,.15,0,.13.13,0,0,1,0,.15L368.1,307.75a.15.15,0,0,1-.14.11Zm-15-58.63,15,57.92,20.44-71.28Z"/></g><g id="triangle36-62" data-name="triangle36"><path class="cls-1" d="M249,248a.14.14,0,0,1-.14-.13l-3.3-31.81a.11.11,0,0,1,0-.11.17.17,0,0,1,.11-.06l10-.42a.14.14,0,0,1,.12.06.13.13,0,0,1,0,.12l-6.69,32.23a.15.15,0,0,1-.15.12Zm-3.13-31.82,3.18,30.7,6.46-31.1Z"/></g><g id="triangle36-63" data-name="triangle36"><path class="cls-1" d="M249,248a.16.16,0,0,1-.11-.05.15.15,0,0,1,0-.13l6.69-32.23a.14.14,0,0,1,.1-.11.14.14,0,0,1,.15,0l28.73,30a.15.15,0,0,1,0,.16.14.14,0,0,1-.13.09L249,248Zm6.78-32.07-6.59,31.76,34.9-2.19Z"/></g><g id="triangle36-64" data-name="triangle36"><path class="cls-1" d="M284.37,245.78a.16.16,0,0,1-.1-.05l-28.72-30a.12.12,0,0,1,0-.16.16.16,0,0,1,.15-.09l25.16,2.24a.14.14,0,0,1,.13.13l3.57,27.77a.16.16,0,0,1-.08.16ZM256,215.8l28.14,29.4-3.5-27.2Z"/></g><g id="triangle36-65" data-name="triangle36"><path class="cls-1" d="M296.7,144.18l-.06,0a.13.13,0,0,1-.08-.14l1.54-23.62a.14.14,0,0,1,.13-.14.14.14,0,0,1,.16.1l5.17,17.75a.14.14,0,0,1,0,.15l-6.71,5.88A.15.15,0,0,1,296.7,144.18Zm1.64-22.92-1.46,22.42,6.37-5.58Z"/></g><g id="triangle36-66" data-name="triangle36"><path class="cls-1" d="M320.92,148.74h0l-24.22-4.57a.15.15,0,0,1-.12-.1.16.16,0,0,1,.05-.15l6.71-5.88a.14.14,0,0,1,.17,0L321,148.46a.16.16,0,0,1,.07.18A.18.18,0,0,1,320.92,148.74ZM297,143.94l23.09,4.35-16.7-10Z"/></g><g id="triangle36-67" data-name="triangle36"><path class="cls-1" d="M320.92,148.74l-.07,0-17.51-10.44a.22.22,0,0,1-.07-.09l-5.16-17.74a.16.16,0,0,1,.07-.18.17.17,0,0,1,.19,0L321,148.5a.14.14,0,0,1,0,.19A.18.18,0,0,1,320.92,148.74Zm-17.38-10.69,16.75,10-21.69-27Z"/></g><g id="triangle36-68" data-name="triangle36"><path class="cls-1" d="M271.91,148.28a.15.15,0,0,1-.14-.13.15.15,0,0,1,.13-.16l24.78-4.11a.15.15,0,0,1,.1.28l-8.19,4.24h-.07l-16.6-.13Zm23.89-3.95L273.65,148l14.84.11Z"/></g><g id="triangle36-69" data-name="triangle36"><path class="cls-1" d="M299.08,168.29l-.08,0-27.17-20a.14.14,0,0,1-.05-.16.16.16,0,0,1,.14-.11l16.6.13a.17.17,0,0,1,.13.08l10.57,19.89a.15.15,0,0,1,0,.18A.12.12,0,0,1,299.08,168.29Zm-26.7-20,26.27,19.35-10.22-19.23Z"/></g><g id="triangle36-70" data-name="triangle36"><path class="cls-1" d="M299.08,168.29a.14.14,0,0,1-.12-.07l-10.57-19.89a.14.14,0,0,1,0-.11.16.16,0,0,1,.07-.09l8.19-4.23a.12.12,0,0,1,.14,0,.18.18,0,0,1,.08.11l2.38,24.12a.16.16,0,0,1-.11.16S299.1,168.3,299.08,168.29Zm-10.36-20,10.15,19.08-2.29-23.15Z"/></g><g id="triangle36-71" data-name="triangle36"><path class="cls-1" d="M205.91,151.37l0,0L156.45,128a.13.13,0,0,1-.08-.12.14.14,0,0,1,.06-.13l26.9-19.59a.17.17,0,0,1,.12,0,.14.14,0,0,1,.1.07l22.5,43a.15.15,0,0,1,0,.17A.17.17,0,0,1,205.91,151.37Zm-49.1-23.55,48.77,23.07-22.21-42.41Z"/></g><g id="triangle36-72" data-name="triangle36"><path class="cls-1" d="M205.91,151.37a.17.17,0,0,1-.12-.08l-22.5-43a.13.13,0,0,1,0-.12.16.16,0,0,1,.09-.09L204.93,100a.17.17,0,0,1,.14,0,.14.14,0,0,1,.06.12l.94,51.09a.14.14,0,0,1-.11.14Zm-22.28-43,22.13,42.25-.92-50.24Z"/></g><g id="triangle36-73" data-name="triangle36"><path class="cls-1" d="M205.91,151.37h0a.15.15,0,0,1-.13-.14l-.93-51.09a.12.12,0,0,1,0-.1.16.16,0,0,1,.11,0l17.5.91a.16.16,0,0,1,.12.06.15.15,0,0,1,0,.13l-16.56,50.18A.15.15,0,0,1,205.91,151.37Zm-.77-51.08.92,50.05,16.22-49.17Z"/></g><g id="triangle36-74" data-name="triangle36"><path class="cls-1" d="M220.88,164.38a.16.16,0,0,1-.09,0l-15-13a.16.16,0,0,1,0-.16.14.14,0,0,1,.13-.1l66-3.08a.14.14,0,0,1,.15.12.16.16,0,0,1-.1.17l-51,16.1Zm-14.58-13,14.62,12.72,49.87-15.73Z"/></g><g id="triangle36-75" data-name="triangle36"><path class="cls-1" d="M205,100.28a.14.14,0,0,1-.09-.26l18.42-15.61a.14.14,0,0,1,.16,0,.16.16,0,0,1,.08.14L222.63,101a.13.13,0,0,1-.15.14l-17.5-.9Zm18.25-15.42L205.37,100l17,.88Z"/></g><g id="triangle36-76" data-name="triangle36"><path class="cls-1" d="M223.39,84.67l-.07,0a.15.15,0,0,1-.07-.13l4.51-76.37a.15.15,0,0,1,.28-.07l39.21,58.35a.2.2,0,0,1,0,.13.14.14,0,0,1-.09.09l-43.72,18ZM228,8.61,223.56,84.3,266.9,66.45Z"/></g><g id="triangle36-77" data-name="triangle36"><path class="cls-1" d="M222.47,101.18l-.07,0a.17.17,0,0,1-.07-.13l.92-16.51a.17.17,0,0,1,.06-.11.12.12,0,0,1,.12,0l22.83,4a.15.15,0,0,1,0,.28l-23.75,12.52A.11.11,0,0,1,222.47,101.18Zm1.07-16.48-.89,16.08,23.13-12.19Z"/></g><g id="triangle36-78" data-name="triangle36"><path class="cls-1" d="M246.23,88.67h0l-22.83-4a.15.15,0,0,1-.13-.13.14.14,0,0,1,.1-.15l43.72-18a.14.14,0,0,1,.18.05.15.15,0,0,1,0,.19l-20.89,22A.16.16,0,0,1,246.23,88.67Zm-22.3-4.2,22.25,3.89,20.36-21.44Z"/></g><g id="triangle36-79" data-name="triangle36"><path class="cls-1" d="M269.4,102l-.07,0L246.16,88.65a.15.15,0,0,1-.07-.11.13.13,0,0,1,0-.12l20.89-22a.14.14,0,0,1,.25.1l2.29,35.31a.17.17,0,0,1-.07.14A.15.15,0,0,1,269.4,102Zm-22.93-13.5,22.77,13.09L267,66.86Z"/></g><g id="triangle36-80" data-name="triangle36"><path class="cls-1" d="M266.42,106.44l-.09,0L246.14,88.63a.15.15,0,0,1,.17-.24l23.17,13.31a.14.14,0,0,1,.07.1.17.17,0,0,1,0,.12l-3,4.45a.14.14,0,0,1-.1.07Zm-19-17,18.95,16.67,2.8-4.18Z"/></g><g id="triangle36-81" data-name="triangle36"><path class="cls-1" d="M269.4,102h0a.15.15,0,0,1-.13-.14L267,66.52a.15.15,0,0,1,0-.11.13.13,0,0,1,.1,0l14.72-.12a.13.13,0,0,1,.12.07.13.13,0,0,1,0,.13l-12.43,35.43A.14.14,0,0,1,269.4,102Zm-2.12-35.32,2.23,34.43,12.12-34.54Z"/></g><g id="triangle36-82" data-name="triangle36"><path class="cls-1" d="M298.24,120.55h-.05l-31.82-14.12a.12.12,0,0,1-.08-.09.13.13,0,0,1,0-.12l3-4.46a.15.15,0,0,1,.21,0l28.84,18.57a.16.16,0,0,1,.05.2A.13.13,0,0,1,298.24,120.55Zm-31.59-14.33,29.9,13.27L269.45,102Z"/></g><g id="triangle36-83" data-name="triangle36"><path class="cls-1" d="M298.24,120.55l-.07,0L269.33,102a.16.16,0,0,1-.06-.18L281.7,66.35a.15.15,0,0,1,.15-.1.18.18,0,0,1,.14.11l16.4,54a.14.14,0,0,1-.05.16A.1.1,0,0,1,298.24,120.55Zm-28.65-18.78L298,120.06,281.83,66.88Z"/></g><g id="triangle36-84" data-name="triangle36"><path class="cls-1" d="M389.32,108.85h0a.14.14,0,0,1-.12-.14l-1.25-41.45a.16.16,0,0,1,.08-.14l20.33-11a.14.14,0,0,1,.16,0,.15.15,0,0,1,.05.16l-19.08,52.41A.14.14,0,0,1,389.32,108.85Zm-1.09-41.51,1.22,40.59,18.68-51.31Z"/></g><g id="triangle36-85" data-name="triangle36"><path class="cls-1" d="M121,219.5h0l-35.4-12.68a.19.19,0,0,1-.1-.14.17.17,0,0,1,.09-.14l50.16-22.12a.15.15,0,0,1,.2.2l-14.77,34.8A.14.14,0,0,1,121,219.5ZM86,206.65l34.91,12.51,14.57-34.32Z"/></g><g id="triangle36-86" data-name="triangle36"><path class="cls-1" d="M121,219.5a.14.14,0,0,1-.1-.05.15.15,0,0,1,0-.16l14.77-34.8a.11.11,0,0,1,.08-.08.15.15,0,0,1,.13,0l31,17.4a.13.13,0,0,1,.07.14.14.14,0,0,1-.09.13L121,219.49Zm14.84-34.74-14.56,34.33,45.12-17.17Z"/></g><g id="triangle36-87" data-name="triangle36"><path class="cls-1" d="M271.4,304h0a.18.18,0,0,1-.13-.1l-22.44-55.94a.14.14,0,0,1,0-.17.14.14,0,0,1,.16,0l41.58,22.15s.06.05.08.08a.17.17,0,0,1,0,.12l-19.13,33.8A.16.16,0,0,1,271.4,304Zm-22.14-55.78,22.18,55.28,18.9-33.39Z"/></g><g id="triangle36-88" data-name="triangle36"><path class="cls-1" d="M140.08,147.07a.11.11,0,0,1-.09,0l-13.34-11.36a.15.15,0,0,1,0-.19.17.17,0,0,1,.19-.06l21.69,9.41a.15.15,0,0,1,.09.15.16.16,0,0,1-.12.13l-8.35,2Zm-12.47-11,12.52,10.67,7.84-1.84Z"/></g><g id="triangle36-89" data-name="triangle36"><path class="cls-1" d="M148.43,145.11h-.05l-21.69-9.4a.16.16,0,0,1-.09-.15.15.15,0,0,1,.11-.13l29.77-7.72a.17.17,0,0,1,.15,0,.14.14,0,0,1,0,.16L148.57,145A.13.13,0,0,1,148.43,145.11Zm-21.22-9.51,21.16,9.17,7.88-16.7Z"/></g><g id="triangle36-90" data-name="triangle36"><path class="cls-1" d="M135.72,184.7h0a.15.15,0,0,1-.12-.16l4.36-37.63a.14.14,0,0,1,.11-.12l8.36-2a.15.15,0,0,1,.14,0,.14.14,0,0,1,0,.15l-12.71,39.58A.15.15,0,0,1,135.72,184.7Zm4.5-37.66-4.16,36,12.16-37.89Z"/></g><g id="triangle36-91" data-name="triangle36"><path class="cls-1" d="M205.91,151.37h0l-57.49-6.26a.14.14,0,0,1-.11-.07.17.17,0,0,1,0-.14l8.08-17.12a.16.16,0,0,1,.09-.07.14.14,0,0,1,.11,0L206,151.08a.18.18,0,0,1,.08.18A.16.16,0,0,1,205.91,151.37Zm-57.25-6.53,56.4,6.13L156.59,128Z"/></g><g id="triangle36-92" data-name="triangle36"><path class="cls-1" d="M156.51,128h-.06a.13.13,0,0,1-.08-.12l-3.16-46.11a.13.13,0,0,1,.08-.14.14.14,0,0,1,.16,0l30.07,26.52a.17.17,0,0,1,0,.12.2.2,0,0,1-.06.11L156.6,128A.1.1,0,0,1,156.51,128Zm-3-45.9,3.12,45.48,26.53-19.32Z"/></g><g id="triangle36-93" data-name="triangle36"><path class="cls-1" d="M183.41,108.41a.11.11,0,0,1-.09,0L153.26,81.85a.13.13,0,0,1,0-.13.14.14,0,0,1,.09-.12l28.22-10.67a.17.17,0,0,1,.14,0,.14.14,0,0,1,.06.12l1.85,37.19a.16.16,0,0,1-.09.15ZM153.64,81.79l29.61,26.13-1.81-36.64Z"/></g><g id="triangle36-94" data-name="triangle36"><path class="cls-1" d="M181.57,71.21h0a.14.14,0,0,1-.11-.12l-9.84-55.24a.14.14,0,0,1,0-.12.17.17,0,0,1,.1-.06L227.89,8a.15.15,0,0,1,.15.07.14.14,0,0,1,0,.16l-46.34,62.9A.13.13,0,0,1,181.57,71.21ZM171.91,16l9.75,54.75L227.58,8.36Z"/></g><g id="triangle36-95" data-name="triangle36"><path class="cls-1" d="M183.41,108.41l-.07,0a.15.15,0,0,1-.07-.12l-1.84-37.2a.13.13,0,0,1,.09-.14.14.14,0,0,1,.17,0L205.1,100a.16.16,0,0,1,0,.13.15.15,0,0,1-.09.1l-21.57,8.13Zm-1.66-36.89,1.81,36.53,21.18-8Z"/></g><g id="triangle36-96" data-name="triangle36"><path class="cls-1" d="M205,100.28a.19.19,0,0,1-.11,0L181.46,71.16a.15.15,0,0,1,0-.18.16.16,0,0,1,.17-.06l41.83,13.46a.15.15,0,0,1,.05.26l-18.42,15.61A.19.19,0,0,1,205,100.28ZM182,71.36l23,28.56L223.1,84.58Z"/></g><g id="triangle36-97" data-name="triangle36"><path class="cls-1" d="M223.39,84.67h0L181.53,71.21a.17.17,0,0,1-.1-.1.2.2,0,0,1,0-.13L227.79,8.07A.16.16,0,0,1,228,8a.18.18,0,0,1,.1.15l-4.51,76.36a.17.17,0,0,1-.06.12A.12.12,0,0,1,223.39,84.67ZM181.82,71l41.45,13.33,4.46-75.66Z"/></g><g id="triangle36-98" data-name="triangle36"><path class="cls-1" d="M295.27,246a.13.13,0,0,1-.12-.08l-14.47-28a.15.15,0,0,1,.25-.17l26.6,28.68a.14.14,0,0,1,0,.16.14.14,0,0,1-.14.09L295.27,246Zm-13.82-27.25,13.92,27,11.69.65Z"/></g><g id="triangle36-99" data-name="triangle36"><path class="cls-1" d="M307.41,246.69a.16.16,0,0,1-.1-.05L280.71,218a.14.14,0,0,1,0-.18.14.14,0,0,1,.18-.06l50.65,18.8a.16.16,0,0,1,.1.14.16.16,0,0,1-.09.14l-24.06,9.88Zm-26.06-28.47,26.11,28.14,23.6-9.69Z"/></g><g id="triangle36-100" data-name="triangle36"><path class="cls-1" d="M290.53,270.14h0a.14.14,0,0,1-.08-.16l4.73-24.13a.15.15,0,0,1,.16-.12l12.13.67a.14.14,0,0,1,.13.08.18.18,0,0,1,0,.16l-16.88,23.45A.12.12,0,0,1,290.53,270.14ZM295.4,246l-4.58,23.34,16.32-22.69Z"/></g><g id="triangle36-101" data-name="triangle36"><path class="cls-1" d="M307.41,246.69a.16.16,0,0,1-.14-.13.15.15,0,0,1,.09-.16l24.05-9.87a.14.14,0,0,1,.14,0L352.88,249a.17.17,0,0,1,.06.18.15.15,0,0,1-.15.1l-45.38-2.6Zm24-9.86-23.38,9.6L352.19,249Z"/></g><g id="triangle36-102" data-name="triangle36"><path class="cls-1" d="M368.89,225.55s-.05,0-.07,0L302.7,182a.15.15,0,0,1-.06-.18.15.15,0,0,1,.18-.08l75.87,20.21a.16.16,0,0,1,.09.07.2.2,0,0,1,0,.13L369,225.45a.16.16,0,0,1-.09.09Zm-65.26-43.31,65.2,42.93,9.62-23Z"/></g><g id="triangle36-103" data-name="triangle36"><path class="cls-1" d="M378.64,202.22h0L302.74,182a.15.15,0,0,1-.11-.15.15.15,0,0,1,.12-.14l72.87-13.84a.12.12,0,0,1,.12,0,.13.13,0,0,1,.06.1l3,34.06a.14.14,0,0,1-.06.12A.13.13,0,0,1,378.64,202.22Zm-75.19-20.34,75,20-3-33.68Z"/></g><g id="triangle36-104" data-name="triangle36"><path class="cls-1" d="M282.06,249.68l-.07,0a.15.15,0,0,1-.05-.2l2.31-3.9a.15.15,0,0,1,.28,0l.12.61a.11.11,0,0,1,0,.11l-2.43,3.3A.14.14,0,0,1,282.06,249.68Zm2.25-3.64-.6,1,.63-.86Z"/></g><g id="triangle36-105" data-name="triangle36"><path class="cls-1" d="M282.06,249.68a.14.14,0,0,1-.11-.06.14.14,0,0,1,0-.17l2.43-3.3a.14.14,0,0,1,.12-.06l10.78-.37a.14.14,0,0,1,.15.12.16.16,0,0,1-.11.17l-13.21,3.67Zm2.52-3.3-2.13,2.9L294,246.06Z"/></g><g id="triangle36-106" data-name="triangle36"><path class="cls-1" d="M290.53,270.14a.13.13,0,0,1-.12-.09l-8.48-20.46a.17.17,0,0,1,0-.12.14.14,0,0,1,.09-.08l13.21-3.67a.15.15,0,0,1,.14,0,.13.13,0,0,1,.05.13L290.69,270a.14.14,0,0,1-.13.11Zm-8.26-20.51,8.22,19.85,4.6-23.41Z"/></g><g id="triangle36-107" data-name="triangle36"><path class="cls-1" d="M135.72,184.7a.13.13,0,0,1-.1-.06.17.17,0,0,1,0-.14l12.71-39.58a.13.13,0,0,1,.1-.1.16.16,0,0,1,.13,0l41.83,32.77a.17.17,0,0,1,.06.16.15.15,0,0,1-.13.1l-54.54,6.82Zm12.8-39.49L136,184.37l54-6.74Z"/></g><g id="triangle36-108" data-name="triangle36"><path class="cls-1" d="M166.7,202.1l-.07,0-31-17.4a.14.14,0,0,1-.07-.16.15.15,0,0,1,.12-.12l54.54-6.81a.15.15,0,0,1,.16.08.17.17,0,0,1,0,.17l-23.57,24.21A.16.16,0,0,1,166.7,202.1Zm-30.5-17.46,30.48,17.12,23.19-23.82Z"/></g><g id="triangle36-109" data-name="triangle36"><path class="cls-1" d="M190.26,177.88a.11.11,0,0,1-.08,0l-41.83-32.77a.16.16,0,0,1,0-.17.2.2,0,0,1,.16-.1l57.48,6.26a.2.2,0,0,1,.12.08.14.14,0,0,1,0,.14L190.4,177.81a.14.14,0,0,1-.1.07Zm-41.32-32.71,41.29,32.34,15.45-26.17Z"/></g><g id="triangle36-110" data-name="triangle36"><path class="cls-1" d="M181.32,208.3h0l-14.62-6.2a.14.14,0,0,1-.09-.11.18.18,0,0,1,0-.14l23.57-24.21a.14.14,0,0,1,.18,0,.14.14,0,0,1,.06.17l-8.94,30.41a.14.14,0,0,1-.08.09ZM167,201.9l14.27,6L190,178.27Z"/></g><g id="triangle36-111" data-name="triangle36"><path class="cls-1" d="M181.32,208.3a.24.24,0,0,1-.11-.06.13.13,0,0,1,0-.13l8.94-30.42a.14.14,0,0,1,.11-.1.17.17,0,0,1,.14,0l27,29.43a.13.13,0,0,1,0,.16.14.14,0,0,1-.13.09l-36,1Zm9-30.27-8.81,30L217,207Z"/></g><g id="triangle36-112" data-name="triangle36"><path class="cls-1" d="M190.26,177.88a.14.14,0,0,1-.1,0,.15.15,0,0,1,0-.17l15.65-26.52a.16.16,0,0,1,.11-.07.14.14,0,0,1,.12,0l15,13a.19.19,0,0,1,0,.14.14.14,0,0,1-.09.11l-30.62,13.5A.08.08,0,0,1,190.26,177.88ZM206,151.45l-15.32,26,30-13.22Z"/></g><g id="triangle36-113" data-name="triangle36"><path class="cls-1" d="M217.29,207.31a.16.16,0,0,1-.1-.05l-27-29.42a.16.16,0,0,1,0-.15.16.16,0,0,1,.11-.1L232,167.8a.14.14,0,0,1,.15,0,.19.19,0,0,1,0,.15l-14.74,39.21a.14.14,0,0,1-.11.09Zm-26.74-29.49,26.69,29.06,14.56-38.73Z"/></g><g id="triangle36-114" data-name="triangle36"><path class="cls-1" d="M190.26,177.88a.14.14,0,0,1-.13-.1.15.15,0,0,1,.08-.18l30.62-13.5a.14.14,0,0,1,.11,0l11.14,3.71a.13.13,0,0,1,.1.15.15.15,0,0,1-.11.14l-41.76,9.79ZM220.9,164.4l-29.1,12.82,39.69-9.3Z"/></g><g id="triangle36-115" data-name="triangle36"><path class="cls-1" d="M350.8,59.25h0a.14.14,0,0,1-.1-.08L323.12,4a.15.15,0,0,1,.17-.21L397.2,22.4a.15.15,0,0,1,.11.11.16.16,0,0,1-.05.15L350.9,59.22A.17.17,0,0,1,350.8,59.25ZM323.53,4.12l27.33,54.75,46-36.25Z"/></g><g id="triangle36-116" data-name="triangle36"><path class="cls-1" d="M388.07,67.4h0l-37.27-8.15a.18.18,0,0,1-.12-.12.16.16,0,0,1,.06-.15l46.35-36.55a.15.15,0,0,1,.17,0,.14.14,0,0,1,.07.16l-9.08,44.71a.2.2,0,0,1-.07.09A.1.1,0,0,1,388.07,67.4ZM351.15,59,388,67.08l9-44.17Z"/></g><g id="triangle36-117" data-name="triangle36"><path class="cls-1" d="M388.07,67.4l-.08,0a.16.16,0,0,1-.06-.15L397,22.52a.14.14,0,0,1,.14-.12.15.15,0,0,1,.15.1l11.24,33.76a.15.15,0,0,1-.07.17l-20.33,11A.11.11,0,0,1,388.07,67.4Zm9.13-44.28L388.29,67l19.94-10.74Z"/></g><g id="triangle36-118" data-name="triangle36"><path class="cls-1" d="M408.4,56.45a.14.14,0,0,1-.13-.1L397,22.59a.16.16,0,0,1,.06-.17.17.17,0,0,1,.19,0l31.92,29.5a.14.14,0,0,1,0,.15.17.17,0,0,1-.11.11l-20.68,4.25Zm-10.91-33.4,11,33.08L428.78,52Z"/></g><g id="triangle36-119" data-name="triangle36"><path class="cls-1" d="M276.52,252.18h0L248.94,248a.15.15,0,0,1-.12-.16.15.15,0,0,1,.14-.14l35.41-2.22a.17.17,0,0,1,.15.1.15.15,0,0,1,0,.17l-7.86,6.4A.15.15,0,0,1,276.52,252.18Zm-26.16-4.27,26.13,4,7.44-6.07Z"/></g><g id="triangle36-120" data-name="triangle36"><path class="cls-1" d="M290.53,270.14h-.06L248.9,248a.15.15,0,0,1,.09-.28l27.56,4.19a.14.14,0,0,1,.1.05l14,18a.17.17,0,0,1,0,.19A.13.13,0,0,1,290.53,270.14Zm-40.73-22L290,269.54l-13.54-17.37Z"/></g><g id="triangle36-121" data-name="triangle36"><path class="cls-1" d="M276.52,252.18a.15.15,0,0,1-.12-.07.14.14,0,0,1,0-.19l7.85-6.4a.14.14,0,0,1,.19,0,.15.15,0,0,1,0,.19l-2.31,3.9a.13.13,0,0,1-.07.06l-5.54,2.5Zm7.31-5.9-6.32,5.15,4.46-2Zm-1.76,3.25Z"/></g><g id="triangle36-122" data-name="triangle36"><path class="cls-1" d="M290.53,270.14a.12.12,0,0,1-.1-.05l-14-18a.2.2,0,0,1,0-.13.14.14,0,0,1,.08-.1l5.54-2.5a.13.13,0,0,1,.12,0,.15.15,0,0,1,.08.08l8.47,20.46a.14.14,0,0,1-.06.18A.1.1,0,0,1,290.53,270.14Zm-13.77-18L290,269l-8-19.31Z"/></g><g id="triangle36-123" data-name="triangle36"><path class="cls-1" d="M12.18,182.48a.18.18,0,0,1-.14-.11.17.17,0,0,1,.08-.18l35.17-17.85a.17.17,0,0,1,.12,0s.07,0,.08.08l6.28,12.93a.12.12,0,0,1,0,.13.13.13,0,0,1-.11.08L12.2,182.48Zm35.11-17.8L13,182.08l40.41-4.8Z"/></g><g id="triangle36-124" data-name="triangle36"><path class="cls-1" d="M53.62,177.55h0a.15.15,0,0,1-.11-.08l-6.27-12.93a.12.12,0,0,1,0-.13.12.12,0,0,1,.11-.08l21.23-2.91a.16.16,0,0,1,.15.08.14.14,0,0,1,0,.17L53.74,177.5A.13.13,0,0,1,53.62,177.55Zm-6-13,6.09,12.55,14.52-15.37Z"/></g><g id="triangle36-125" data-name="triangle36"><path class="cls-1" d="M118,96.87h0a.16.16,0,0,1-.1-.19l8.12-25a.15.15,0,1,1,.28.09l-8.11,25A.15.15,0,0,1,118,96.87Z"/></g><g id="triangle36-126" data-name="triangle36"><path class="cls-1" d="M118,96.87a.12.12,0,0,1-.09,0,.17.17,0,0,1,0-.15l8.12-25a.16.16,0,0,1,.07-.09.17.17,0,0,1,.12,0l27.19,10a.16.16,0,0,1,.09.14.14.14,0,0,1-.09.14l-35.3,15Zm8.22-24.94-8,24.53L153,81.75Z"/></g><g id="triangle36-127" data-name="triangle36"><path class="cls-1" d="M125.87,129.69a.15.15,0,0,1-.14-.11l-7.82-32.82a.15.15,0,0,1,.07-.16.14.14,0,0,1,.17,0l38.46,31.12a.14.14,0,0,1-.09.26l-30.63,1.7ZM118.3,97.12,126,129.39l30.13-1.67Z"/></g><g id="triangle36-128" data-name="triangle36"><path class="cls-1" d="M156.51,128a.16.16,0,0,1-.09,0L118,96.84a.14.14,0,0,1,0-.14.13.13,0,0,1,.09-.11l35.3-15a.15.15,0,0,1,.13,0,.12.12,0,0,1,.07.11l3.16,46.11a.13.13,0,0,1-.08.14A.09.09,0,0,1,156.51,128ZM118.34,96.76l38,30.76L153.22,82Z"/></g><g id="triangle36-129" data-name="triangle36"><path class="cls-1" d="M378.64,202.22h0a.14.14,0,0,1-.11-.13l-3-34.05a.16.16,0,0,1,.08-.14.15.15,0,0,1,.16,0l17.7,12.25a.14.14,0,0,1,0,.2l-14.71,21.81A.15.15,0,0,1,378.64,202.22Zm-2.81-33.9,2.93,33.32,14.39-21.34Z"/></g><g id="triangle36-130" data-name="triangle36"><path class="cls-1" d="M393.35,180.41a.13.13,0,0,1-.08,0l-17.7-12.24a.14.14,0,0,1-.07-.11.15.15,0,0,1,0-.11l30.19-33.56a.15.15,0,0,1,.18,0,.14.14,0,0,1,.07.17L393.5,180.3a.15.15,0,0,1-.09.1ZM375.87,168l17.4,12,12.26-45Z"/></g><g id="triangle36-131" data-name="triangle36"><path class="cls-1" d="M393.35,180.41a.11.11,0,0,1-.08,0,.17.17,0,0,1-.06-.16l12.48-45.8s0-.08.08-.09a.2.2,0,0,1,.13,0l38.27,17.05a.14.14,0,0,1,.09.13.16.16,0,0,1-.08.13l-50.75,28.76Zm12.59-45.74L393.6,180l50.18-28.43Z"/></g><g id="triangle36-132" data-name="triangle36"><path class="cls-1" d="M103.6,151a.14.14,0,0,1-.11-.06.15.15,0,0,1,0-.2l22.27-21.31a.16.16,0,0,1,.16,0,.14.14,0,0,1,.09.12l.88,6a.13.13,0,0,1-.07.14L103.69,151A.16.16,0,0,1,103.6,151Zm22.17-21.16-20.86,20,21.68-14.33Z"/></g><g id="triangle36-133" data-name="triangle36"><path class="cls-1" d="M103.6,151a.15.15,0,0,1-.13-.1.13.13,0,0,1,.06-.17l23.14-15.3a.14.14,0,0,1,.18,0l13.33,11.36a.14.14,0,0,1,0,.16.17.17,0,0,1-.13.1L103.62,151Zm23.14-15.26-22.54,14.9,35.53-3.84Z"/></g><g id="triangle36-134" data-name="triangle36"><path class="cls-1" d="M135.72,184.7a.16.16,0,0,1-.09,0L103.5,151a.14.14,0,0,1,0-.15.17.17,0,0,1,.12-.1l36.48-3.94a.17.17,0,0,1,.12,0,.13.13,0,0,1,0,.12l-4.35,37.63a.17.17,0,0,1-.1.12ZM103.92,151l31.7,33.24,4.3-37.13Z"/></g><g id="triangle36-135" data-name="triangle36"><path class="cls-1" d="M205.91,151.37l-.08,0a.14.14,0,0,1-.05-.16L222.34,101a.2.2,0,0,1,.09-.09.13.13,0,0,1,.12,0l39.38,19.5a.16.16,0,0,1,.08.13.13.13,0,0,1-.08.13L206,151.35Zm16.66-50.12-16.39,49.66,55.36-30.37Z"/></g><g id="triangle36-136" data-name="triangle36"><path class="cls-1" d="M205.91,151.37a.16.16,0,0,1-.13-.11.14.14,0,0,1,.07-.17l55.94-30.69a.13.13,0,0,1,.12,0,.12.12,0,0,1,.09.08l10.06,27.6a.17.17,0,0,1,0,.14.14.14,0,0,1-.12.06l-66,3.09Zm55.87-30.62L206.56,151l65.15-3Z"/></g><g id="triangle36-137" data-name="triangle36"><path class="cls-1" d="M261.85,120.68h-.06l-39.37-19.5a.15.15,0,0,1-.08-.18.13.13,0,0,1,.16-.1l43.95,5.25a.14.14,0,0,1,.1.07.13.13,0,0,1,0,.12L262,120.58a.14.14,0,0,1-.08.09Zm-38.53-19.39,38.45,19,4.46-13.91Z"/></g><g id="triangle36-138" data-name="triangle36"><path class="cls-1" d="M261.85,120.68a.14.14,0,0,1-.11-.06.13.13,0,0,1,0-.13l4.57-14.25a.14.14,0,0,1,.08-.09.24.24,0,0,1,.12,0l31.82,14.12a.15.15,0,0,1,.08.17.14.14,0,0,1-.14.11l-36.39.13Zm4.67-14.19-4.45,13.89,35.48-.12Z"/></g><g id="triangle36-139" data-name="triangle36"><path class="cls-1" d="M271.91,148.28a.14.14,0,0,1-.13-.1l-10.06-27.59a.16.16,0,0,1,0-.17.14.14,0,0,1,.17,0l34.85,23.5a.13.13,0,0,1,.06.15.15.15,0,0,1-.12.12L272,148.28Zm-9.75-27.37L272,148l24.29-4Z"/></g><g id="triangle36-140" data-name="triangle36"><path class="cls-1" d="M296.7,144.18a.13.13,0,0,1-.08,0l-34.84-23.49a.15.15,0,0,1-.06-.17.14.14,0,0,1,.14-.1l36.39-.13a.14.14,0,0,1,.15.15L296.86,144a.16.16,0,0,1-.09.12Zm-34.35-23.5,34.23,23.08,1.51-23.21Z"/></g><g id="triangle36-141" data-name="triangle36"><path class="cls-1" d="M368.89,225.55a.19.19,0,0,1-.1-.05.16.16,0,0,1,0-.16L378.51,202a.16.16,0,0,1,.1-.08.17.17,0,0,1,.14,0L396,216.79a.15.15,0,0,1-.05.26l-27,8.49Zm9.82-23.23-9.55,22.84,26.41-8.32Z"/></g><g id="triangle36-142" data-name="triangle36"><path class="cls-1" d="M388.63,235.77h-.06l-19.74-10.23a.18.18,0,0,1-.08-.15.16.16,0,0,1,.11-.13l27-8.49a.14.14,0,0,1,.15,0,.15.15,0,0,1,0,.16l-7.23,18.72a.14.14,0,0,1-.09.08A.07.07,0,0,1,388.63,235.77Zm-19.34-10.34,19.27,10,7.06-18.28Z"/></g><g id="triangle36-143" data-name="triangle36"><path class="cls-1" d="M395.86,217.05a.16.16,0,0,1-.09,0l-17.22-14.84a.13.13,0,0,1,0-.19l14.71-21.81a.13.13,0,0,1,.16-.06.15.15,0,0,1,.11.13L396,216.89a.18.18,0,0,1-.08.15Zm-17-15,16.85,14.52-2.46-35.86Z"/></g><g id="triangle36-144" data-name="triangle36"><path class="cls-1" d="M388.63,235.77l-.09,0a.15.15,0,0,1,0-.17l7.23-18.72a.2.2,0,0,1,.09-.09.17.17,0,0,1,.12,0l13.61,7.09a.16.16,0,0,1,.08.13.12.12,0,0,1-.07.13l-20.85,11.64A.11.11,0,0,1,388.63,235.77ZM396,217.11l-7,18.18L409.17,224Z"/></g><g id="triangle36-145" data-name="triangle36"><path class="cls-1" d="M53.62,177.55a.14.14,0,0,1-.11-.07.14.14,0,0,1,0-.18l15-15.83a.13.13,0,0,1,.11-.05L96.17,163h0a.16.16,0,0,1,.14.13.14.14,0,0,1-.1.16L53.68,177.54Zm15-15.83-14.5,15.35,41.23-13.84Z"/></g><g id="triangle36-146" data-name="triangle36"><path class="cls-1" d="M85.56,206.82l-.09,0L53.53,177.51a.14.14,0,0,1,0-.14.16.16,0,0,1,.1-.11L96.12,163a.14.14,0,0,1,.15,0,.19.19,0,0,1,0,.15L85.72,206.7a.14.14,0,0,1-.1.11ZM53.92,177.46l31.57,28.93,10.47-43Z"/></g><g id="triangle36-147" data-name="triangle36"><path class="cls-1" d="M68.58,161.72a.16.16,0,0,1-.14-.13.14.14,0,0,1,.1-.16l35-10.71a.15.15,0,0,1,.17.05.17.17,0,0,1,0,.17l-7.45,12.27a.17.17,0,0,1-.13.07l-27.58-1.56Zm34.7-10.6L69.43,161.47,96.08,163Z"/></g><g id="triangle36-148" data-name="triangle36"><path class="cls-1" d="M85.56,206.82a.2.2,0,0,1-.08,0,.12.12,0,0,1,0-.15L96,163.09a.16.16,0,0,1,.08-.1.23.23,0,0,1,.14,0l39.56,21.42a.14.14,0,0,1,.08.13.14.14,0,0,1-.09.13L85.63,206.8Zm10.7-43.47L85.79,206.41l49.61-21.88Z"/></g><g id="triangle36-149" data-name="triangle36"><path class="cls-1" d="M135.72,184.7l-.06,0L96.09,163.26a.16.16,0,0,1-.07-.09.17.17,0,0,1,0-.12l7.44-12.27a.16.16,0,0,1,.11-.07.14.14,0,0,1,.13,0l32.12,33.69a.14.14,0,0,1,0,.19A.16.16,0,0,1,135.72,184.7ZM96.37,163.07,135,184,103.63,151.1Z"/></g><g id="triangle36-150" data-name="triangle36"><path class="cls-1" d="M260.47,180.68l-.05,0L232,168.08a.14.14,0,0,1-.09-.13.16.16,0,0,1,.08-.14L271.86,148a.14.14,0,0,1,.16,0,.14.14,0,0,1,0,.16l-11.44,32.4a.2.2,0,0,1-.09.09Zm-28.08-12.74,28,12.39,11.27-31.9Z"/></g><g id="triangle36-151" data-name="triangle36"><path class="cls-1" d="M260.47,180.68a.22.22,0,0,1-.11-.05.16.16,0,0,1,0-.15l11.44-32.4a.14.14,0,0,1,.12-.09.16.16,0,0,1,.14,0l22.49,26.14a.2.2,0,0,1,0,.15.15.15,0,0,1-.12.1l-33.94,6.25ZM272,148.43,260.7,180.34l33.44-6.16Z"/></g><g id="triangle36-152" data-name="triangle36"><path class="cls-1" d="M280.81,218a.15.15,0,0,1-.12-.08L260.35,180.6a.14.14,0,0,1,0-.15.17.17,0,0,1,.13-.07l42.3,1.33a.13.13,0,0,1,.13.08.16.16,0,0,1,0,.15l-22,36a.14.14,0,0,1-.13.07Zm-20.08-37.32,20.09,36.87L302.52,182Z"/></g><g id="triangle36-153" data-name="triangle36"><path class="cls-1" d="M260.47,180.68a.15.15,0,0,1-.14-.14.14.14,0,0,1,.12-.16l33.94-6.25a.2.2,0,0,1,.13,0l8.36,7.58a.14.14,0,0,1,0,.16.16.16,0,0,1-.14.1l-42.31-1.33Zm33.9-6.24-32.5,6,40.51,1.28Z"/></g><g id="triangle36-154" data-name="triangle36"><path class="cls-1" d="M126.16,71.89a.15.15,0,0,1-.06-.28l28.77-16.84a.16.16,0,0,1,.21.06.14.14,0,0,1-.06.2L126.24,71.87A.11.11,0,0,1,126.16,71.89Z"/></g><g id="triangle36-155" data-name="triangle36"><path class="cls-1" d="M153.35,81.89h0l-27.18-10a.15.15,0,0,1-.1-.13.17.17,0,0,1,.08-.14l28.77-16.84a.18.18,0,0,1,.16,0,.16.16,0,0,1,.07.13l-1.6,26.84a.14.14,0,0,1-.06.12ZM126.52,71.71l26.7,9.82,1.56-26.36Z"/></g><g id="triangle36-156" data-name="triangle36"><path class="cls-1" d="M153.35,81.89a.11.11,0,0,1-.08,0,.14.14,0,0,1-.06-.13l1.59-26.84a.14.14,0,0,1,.08-.12.16.16,0,0,1,.15,0l26.62,16.16a.13.13,0,0,1,.07.14.13.13,0,0,1-.09.12L153.41,81.88Zm1.73-26.73-1.56,26.36L181.24,71Z"/></g><g id="triangle36-157" data-name="triangle36"><path class="cls-1" d="M154.94,55.05h0a.16.16,0,0,1-.11-.17l5.52-43.39a.19.19,0,0,1,.07-.11.2.2,0,0,1,.13,0l11.27,4.31a.15.15,0,0,1,.08.08.13.13,0,0,1,0,.12L155.09,55A.15.15,0,0,1,154.94,55.05Zm5.65-43.33-5.36,42.15,16.31-38Z"/></g><g id="triangle36-158" data-name="triangle36"><path class="cls-1" d="M181.57,71.21a.08.08,0,0,1-.07,0L154.87,55a.16.16,0,0,1-.06-.19L171.6,15.76a.13.13,0,0,1,.15-.09.15.15,0,0,1,.13.13L181.72,71a.14.14,0,0,1-.06.15A.1.1,0,0,1,181.57,71.21ZM155.14,54.84l26.23,15.93-9.69-54.43Z"/></g><g id="triangle36-159" data-name="triangle36"><path class="cls-1" d="M217.29,207.31l-.09,0a.14.14,0,0,1,0-.16l14.74-39.22a.13.13,0,0,1,.12-.09.13.13,0,0,1,.14.06L247,189.57a.18.18,0,0,1,0,.12.18.18,0,0,1-.07.1l-29.62,17.5Zm14.78-39.05-14.48,38.55,29.11-17.2Z"/></g><g id="triangle36-160" data-name="triangle36"><path class="cls-1" d="M245.65,216.19h0l-28.37-8.88a.17.17,0,0,1-.1-.13.14.14,0,0,1,.07-.14l29.62-17.5a.14.14,0,0,1,.15,0,.17.17,0,0,1,.07.13l-1.25,26.39a.11.11,0,0,1-.06.11A.17.17,0,0,1,245.65,216.19Zm-28-9.07,27.86,8.72,1.23-25.91Z"/></g><g id="triangle36-161" data-name="triangle36"><path class="cls-1" d="M246.9,189.81a.16.16,0,0,1-.11-.07L231.91,168a.17.17,0,0,1,0-.18.15.15,0,0,1,.18,0l28.44,12.58a.14.14,0,0,1,.08.13.14.14,0,0,1-.06.13L247,189.78A.14.14,0,0,1,246.9,189.81Zm-14.45-21.52L247,189.45l13.22-8.89Z"/></g><g id="triangle36-162" data-name="triangle36"><path class="cls-1" d="M245.65,216.19a.15.15,0,0,1-.09,0,.16.16,0,0,1-.05-.11l1.25-26.39a.16.16,0,0,1,.13-.14.14.14,0,0,1,.16.1l8.75,26a.22.22,0,0,1,0,.14.17.17,0,0,1-.12.06l-10,.42ZM247,190.45l-1.2,25.44,9.63-.41Z"/></g><g id="triangle36-163" data-name="triangle36"><path class="cls-1" d="M280.81,218h0l-25.16-2.24a.17.17,0,0,1-.13-.1l-8.74-26a.14.14,0,0,1,.06-.17.15.15,0,0,1,.18,0l33.9,28.21a.14.14,0,0,1,0,.17A.14.14,0,0,1,280.81,218Zm-25-2.53,24.59,2.19-33.14-27.56Z"/></g><g id="triangle36-164" data-name="triangle36"><path class="cls-1" d="M280.81,218a.18.18,0,0,1-.09,0l-33.9-28.2a.14.14,0,0,1-.06-.12.15.15,0,0,1,.07-.12l13.56-9.12a.14.14,0,0,1,.12,0,.16.16,0,0,1,.1.08L281,217.79a.14.14,0,0,1,0,.18A.14.14,0,0,1,280.81,218Zm-33.65-28.34,33.15,27.58-19.89-36.51Z"/></g><g id="triangle36-165" data-name="triangle36"><path class="cls-1" d="M38,254.62a.16.16,0,0,1-.09,0,.17.17,0,0,1,0-.15l5.22-26.6a.13.13,0,0,1,.06-.1.17.17,0,0,1,.12,0l34.08,8.54a.15.15,0,0,1,.11.14.13.13,0,0,1-.08.14L38.07,254.6A.1.1,0,0,1,38,254.62Zm5.34-26.57-5.13,26.16,38.65-17.76Z"/></g><g id="triangle36-166" data-name="triangle36"><path class="cls-1" d="M62.34,264.55h-.05L38,254.61a.16.16,0,0,1-.09-.14.16.16,0,0,1,.08-.14l39.3-18.06a.15.15,0,0,1,.17,0,.14.14,0,0,1,0,.17l-15,28A.14.14,0,0,1,62.34,264.55Zm-24-10.09,23.9,9.75L77,236.73Z"/></g><g id="triangle36-167" data-name="triangle36"><path class="cls-1" d="M77.3,236.56h0L43.19,228a.15.15,0,0,1-.12-.12.15.15,0,0,1,.08-.15l18.52-9.88a.14.14,0,0,1,.18,0l15.57,18.42a.15.15,0,0,1,0,.18A.15.15,0,0,1,77.3,236.56Zm-33.67-8.74,33.26,8.33-15.19-18Z"/></g><g id="triangle36-168" data-name="triangle36"><path class="cls-1" d="M77.3,236.56a.16.16,0,0,1-.11-.05L61.63,218.08a.14.14,0,0,1,0-.18.14.14,0,0,1,.17-.05l12.5,4.87a.18.18,0,0,1,.09.1l3.07,13.56a.14.14,0,0,1-.08.16ZM62.23,218.34,77,235.85,74.11,223Z"/></g><g id="triangle36-169" data-name="triangle36"><path class="cls-1" d="M62.34,264.55a.15.15,0,0,1-.09,0,.15.15,0,0,1,0-.18l15-28a.2.2,0,0,1,.12-.08l42.05-4.53a.14.14,0,0,1,.16.11.15.15,0,0,1-.07.17l-57,32.52A.11.11,0,0,1,62.34,264.55Zm15.06-28L62.72,264l55.94-31.91Z"/></g><g id="triangle36-170" data-name="triangle36"><path class="cls-1" d="M77.3,236.56a.15.15,0,0,1-.14-.12l-3.07-13.55a.15.15,0,0,1,.17-.18l45.13,9a.15.15,0,0,1,.12.15.16.16,0,0,1-.14.14l-42.05,4.53Zm-2.87-13.51,3,13.2,41-4.41Z"/></g><g id="triangle36-171" data-name="triangle36"><path class="cls-1" d="M305.32,281.12a.11.11,0,0,1-.08,0l-14.79-11a.16.16,0,0,1,0-.21l16.88-23.46a.15.15,0,0,1,.17,0,.15.15,0,0,1,.1.15L305.48,281a.16.16,0,0,1-.09.13ZM290.75,270l14.45,10.73,2-33.65Z"/></g><g id="triangle36-172" data-name="triangle36"><path class="cls-1" d="M305.32,281.12a.1.1,0,0,1-.07,0,.12.12,0,0,1-.07-.13l2.09-34.44a.15.15,0,0,1,.16-.14l45.38,2.6h0a.15.15,0,0,1,.13.11.14.14,0,0,1-.06.17L305.41,281.1A.1.1,0,0,1,305.32,281.12Zm2.24-34.42-2.07,34,46.86-31.41Z"/></g><g id="triangle36-173" data-name="triangle36"><path class="cls-1" d="M329,298.64l-.08,0-23.69-17.53a.13.13,0,0,1-.06-.12.14.14,0,0,1,.06-.12L352.72,249a.15.15,0,0,1,.21.19l-23.78,49.35a.14.14,0,0,1-.1.08ZM305.59,281,329,298.27l23.47-48.7Z"/></g><path class="cls-2" d="M10.83,183.49a.65.65,0,0,0-1.3-.08.65.65,0,0,0,1.3.08Z"/><path class="cls-2" d="M197.39,236a.8.8,0,1,0-1.59-.1.78.78,0,0,0,.74.84A.8.8,0,0,0,197.39,236Z"/><path class="cls-3" d="M188.37,262.37a1.72,1.72,0,1,0-1.83,1.6A1.72,1.72,0,0,0,188.37,262.37Z"/><path class="cls-2" d="M171.11,226.68a.65.65,0,0,0-.6-.68.63.63,0,0,0-.67.59.64.64,0,0,0,.59.68A.65.65,0,0,0,171.11,226.68Z"/><path class="cls-2" d="M408,134.6a2.16,2.16,0,1,0-2.29,2A2.16,2.16,0,0,0,408,134.6Z"/><path class="cls-4" d="M376.84,168.09a1.19,1.19,0,0,0-2.38-.15,1.19,1.19,0,1,0,2.38.15Z"/><path class="cls-2" d="M322.37,148.68a1.45,1.45,0,1,0-1.54,1.35A1.44,1.44,0,0,0,322.37,148.68Z"/><path class="cls-4" d="M268,66.57a.83.83,0,0,0-.77-.87.82.82,0,1,0,.77.87Z"/><path class="cls-3" d="M299.09,51.67a2.84,2.84,0,1,0-3,2.65A2.83,2.83,0,0,0,299.09,51.67Z"/><path class="cls-4" d="M282.28,66.43a.43.43,0,0,0-.41-.46.42.42,0,0,0-.46.4.43.43,0,0,0,.4.47A.45.45,0,0,0,282.28,66.43Z"/><path class="cls-2" d="M230.13,8.31a2.22,2.22,0,1,0-2.36,2.07A2.22,2.22,0,0,0,230.13,8.31Z"/><path class="cls-4" d="M299.19,51.68a2.93,2.93,0,1,0-3.12,2.73A2.94,2.94,0,0,0,299.19,51.68Z"/><path class="cls-3" d="M237.13,1.61a.88.88,0,1,0-1.76-.11.9.9,0,0,0,.82.94A.89.89,0,0,0,237.13,1.61Z"/><path class="cls-4" d="M229.16,8.24a1.25,1.25,0,1,0-1.33,1.17A1.25,1.25,0,0,0,229.16,8.24Z"/><path class="cls-4" d="M298.57,51.64a2.31,2.31,0,1,0-2.46,2.16A2.3,2.3,0,0,0,298.57,51.64Z"/><path class="cls-2" d="M268.22,66.59a1.1,1.1,0,1,0-1.17,1A1.1,1.1,0,0,0,268.22,66.59Z"/><path class="cls-5" d="M121.87,219.41a.91.91,0,1,0-1,.85A.91.91,0,0,0,121.87,219.41Z"/><path class="cls-2" d="M123,232.12a3.61,3.61,0,1,0-3.84,3.36A3.61,3.61,0,0,0,123,232.12Z"/><path class="cls-5" d="M76.65,223a2.42,2.42,0,1,0-2.57,2.26A2.42,2.42,0,0,0,76.65,223Z"/><path class="cls-2" d="M123.86,219.54a2.9,2.9,0,1,0-3.08,2.7A2.9,2.9,0,0,0,123.86,219.54Z"/><path class="cls-2" d="M171.16,226.68a.7.7,0,0,0-.64-.73.69.69,0,1,0,.64.73Z"/><path class="cls-4" d="M121.05,232a1.69,1.69,0,1,0-3.38-.22,1.69,1.69,0,0,0,3.38.22Z"/><path class="cls-5" d="M122.53,219.45a1.56,1.56,0,1,0-1.67,1.46A1.57,1.57,0,0,0,122.53,219.45Z"/><path class="cls-3" d="M172,226.73a1.55,1.55,0,0,0-3.1-.2,1.55,1.55,0,1,0,3.1.2Z"/><path class="cls-3" d="M167.92,202a1.22,1.22,0,1,0-1.29,1.14A1.21,1.21,0,0,0,167.92,202Z"/><path class="cls-3" d="M41.1,254.67a3.1,3.1,0,1,0-3.3,2.89A3.1,3.1,0,0,0,41.1,254.67Z"/><path class="cls-2" d="M22.1,233.16a.26.26,0,0,0-.24-.27.26.26,0,0,0-.28.24.27.27,0,0,0,.24.28A.26.26,0,0,0,22.1,233.16Z"/><path class="cls-2" d="M4.92,275.8a2.46,2.46,0,1,0-2.62,2.29A2.47,2.47,0,0,0,4.92,275.8Z"/><path class="cls-2" d="M159.73,271.83a3,3,0,1,0-3.14,2.76A2.95,2.95,0,0,0,159.73,271.83Z"/><path class="cls-2" d="M171.71,226.71a1.25,1.25,0,0,0-1.16-1.31,1.23,1.23,0,0,0-1.31,1.15,1.24,1.24,0,1,0,2.47.16Z"/><path class="cls-3" d="M121.26,232a1.91,1.91,0,1,0-2,1.78A1.91,1.91,0,0,0,121.26,232Z"/><path class="cls-2" d="M157.9,271.71a1.14,1.14,0,0,0-1.05-1.2,1.13,1.13,0,1,0,1.05,1.2Z"/><path class="cls-2" d="M189.68,262.46a3,3,0,1,0-3.22,2.83A3,3,0,0,0,189.68,262.46Z"/><path class="cls-4" d="M169,282.21a3.89,3.89,0,1,0-4.13,3.63A3.88,3.88,0,0,0,169,282.21Z"/><path class="cls-4" d="M159.78,271.83a3,3,0,1,0-3.2,2.8A3,3,0,0,0,159.78,271.83Z"/><path class="cls-5" d="M189.05,262.42a2.4,2.4,0,1,0-2.55,2.24A2.41,2.41,0,0,0,189.05,262.42Z"/><path class="cls-4" d="M171.82,226.72a1.35,1.35,0,1,0-1.43,1.26A1.34,1.34,0,0,0,171.82,226.72Z"/><path class="cls-5" d="M390.71,108.8a1.39,1.39,0,1,0-1.47,1.29A1.39,1.39,0,0,0,390.71,108.8Z"/><path class="cls-3" d="M408.1,134.61a2.27,2.27,0,1,0-2.41,2.11A2.26,2.26,0,0,0,408.1,134.61Z"/><path class="cls-2" d="M321.5,148.63a.58.58,0,1,0-1.15-.08.58.58,0,0,0,.54.62A.57.57,0,0,0,321.5,148.63Z"/><path class="cls-3" d="M298,144.11a1.29,1.29,0,1,0-1.37,1.21A1.29,1.29,0,0,0,298,144.11Z"/><path class="cls-2" d="M321.81,148.65a.89.89,0,1,0-1.77-.12.89.89,0,0,0,.83.95A.89.89,0,0,0,321.81,148.65Z"/><path class="cls-2" d="M300.32,168.23a1.23,1.23,0,1,0-1.31,1.15A1.23,1.23,0,0,0,300.32,168.23Z"/><path class="cls-4" d="M127.83,71.85a1.66,1.66,0,1,0-1.77,1.55A1.66,1.66,0,0,0,127.83,71.85Z"/><path class="cls-5" d="M252.84,248.1a3.88,3.88,0,1,0-4.13,3.63A3.88,3.88,0,0,0,252.84,248.1Z"/><path class="cls-4" d="M197.24,236a.64.64,0,0,0-.6-.69.65.65,0,1,0,.6.69Z"/><path class="cls-4" d="M187.29,262.3a.64.64,0,0,0-1.27-.08.64.64,0,1,0,1.27.08Z"/><path class="cls-4" d="M249.77,247.9a.81.81,0,0,0-.75-.85.8.8,0,0,0-.11,1.6A.81.81,0,0,0,249.77,247.9Z"/><path class="cls-2" d="M212.73,224.74a1,1,0,0,0-2-.13,1,1,0,1,0,2,.13Z"/><path class="cls-4" d="M197.34,236a.75.75,0,0,0-.7-.79.74.74,0,0,0-.79.69.75.75,0,0,0,.7.79A.74.74,0,0,0,197.34,236Z"/><path class="cls-4" d="M252.76,248.1a3.8,3.8,0,1,0-4,3.55A3.81,3.81,0,0,0,252.76,248.1Z"/><path class="cls-2" d="M248.73,216.24a3.07,3.07,0,1,0-3.27,2.87A3.07,3.07,0,0,0,248.73,216.24Z"/><path class="cls-4" d="M213.13,224.77a1.41,1.41,0,1,0-1.5,1.31A1.41,1.41,0,0,0,213.13,224.77Z"/><path class="cls-5" d="M295.7,174.36a1.29,1.29,0,1,0-1.37,1.21A1.29,1.29,0,0,0,295.7,174.36Z"/><path class="cls-3" d="M300.28,168.22a1.19,1.19,0,1,0-1.27,1.12A1.19,1.19,0,0,0,300.28,168.22Z"/><path class="cls-4" d="M273.51,148.24a1.59,1.59,0,1,0-1.69,1.48A1.58,1.58,0,0,0,273.51,148.24Z"/><path class="cls-2" d="M301.12,120.59a2.88,2.88,0,1,0-3.06,2.68A2.87,2.87,0,0,0,301.12,120.59Z"/><path class="cls-4" d="M390,108.75a.63.63,0,1,0-.67.58A.63.63,0,0,0,390,108.75Z"/><path class="cls-2" d="M321.67,148.64a.75.75,0,0,0-.7-.79.75.75,0,0,0-.79.69.75.75,0,0,0,.7.79A.74.74,0,0,0,321.67,148.64Z"/><path class="cls-4" d="M296.26,245.93a1,1,0,1,0-1,.92A1,1,0,0,0,296.26,245.93Z"/><path class="cls-3" d="M285.78,245.72a1.4,1.4,0,1,0-1.49,1.31A1.4,1.4,0,0,0,285.78,245.72Z"/><path class="cls-4" d="M283.16,218a2.35,2.35,0,1,0-2.5,2.19A2.34,2.34,0,0,0,283.16,218Z"/><path class="cls-2" d="M296.37,245.94a1.09,1.09,0,1,0-1.16,1A1.09,1.09,0,0,0,296.37,245.94Z"/><path class="cls-2" d="M285.2,246.28a.7.7,0,1,0-.74.65A.69.69,0,0,0,285.2,246.28Z"/><path class="cls-2" d="M284.92,245.67a.54.54,0,1,0-.57.5A.55.55,0,0,0,284.92,245.67Z"/><path class="cls-3" d="M253.33,313.11a2.77,2.77,0,1,0-2.94,2.58A2.77,2.77,0,0,0,253.33,313.11Z"/><path class="cls-3" d="M190.71,262.53a4.06,4.06,0,1,0-4.32,3.79A4.06,4.06,0,0,0,190.71,262.53Z"/><path class="cls-4" d="M166.24,282a1.11,1.11,0,0,0-1-1.19,1.12,1.12,0,1,0,1,1.19Z"/><path class="cls-2" d="M250.8,312.94a.22.22,0,0,0-.21-.24.23.23,0,1,0,.21.24Z"/><path class="cls-4" d="M250.68,248a1.72,1.72,0,1,0-1.83,1.6A1.72,1.72,0,0,0,250.68,248Z"/><path class="cls-4" d="M186.9,262.28a.25.25,0,0,0-.23-.26.25.25,0,0,0-.26.23.23.23,0,0,0,.23.25A.24.24,0,0,0,186.9,262.28Z"/><path class="cls-4" d="M251,313a.45.45,0,0,0-.41-.48.45.45,0,0,0-.06.89A.43.43,0,0,0,251,313Z"/><path class="cls-2" d="M272.76,303.89a1.35,1.35,0,1,0-1.44,1.26A1.36,1.36,0,0,0,272.76,303.89Z"/><path class="cls-4" d="M249.26,247.87a.29.29,0,0,0-.28-.32.3.3,0,0,0-.31.28.29.29,0,0,0,.28.32A.29.29,0,0,0,249.26,247.87Z"/><path class="cls-4" d="M304.19,182a1.41,1.41,0,1,0-1.5,1.32A1.41,1.41,0,0,0,304.19,182Z"/><path class="cls-3" d="M333.66,236.81a2.19,2.19,0,1,0-2.33,2.05A2.2,2.2,0,0,0,333.66,236.81Z"/><path class="cls-2" d="M281.51,217.9a.7.7,0,0,0-.65-.73.68.68,0,0,0-.73.64.69.69,0,0,0,.64.74A.71.71,0,0,0,281.51,217.9Z"/><path class="cls-4" d="M305.87,182.06a3.1,3.1,0,1,0-3.29,2.89A3.09,3.09,0,0,0,305.87,182.06Z"/><path class="cls-2" d="M300.85,168.26A1.76,1.76,0,1,0,299,169.9,1.77,1.77,0,0,0,300.85,168.26Z"/><path class="cls-3" d="M297.46,174.48a3,3,0,1,0-3.24,2.84A3.05,3.05,0,0,0,297.46,174.48Z"/><path class="cls-3" d="M304.3,182a1.52,1.52,0,1,0-1.62,1.42A1.53,1.53,0,0,0,304.3,182Z"/><path class="cls-2" d="M322.64,148.7a1.72,1.72,0,1,0-1.83,1.6A1.72,1.72,0,0,0,322.64,148.7Z"/><path class="cls-4" d="M299.81,168.19a.72.72,0,0,0-.68-.76.71.71,0,0,0-.76.67.72.72,0,0,0,.67.77A.73.73,0,0,0,299.81,168.19Z"/><path class="cls-4" d="M303.94,181.94a1.16,1.16,0,1,0-2.32-.16,1.16,1.16,0,0,0,2.32.16Z"/><path class="cls-4" d="M376,168a.33.33,0,0,0-.31-.35.32.32,0,0,0-.34.31.31.31,0,0,0,.3.34A.33.33,0,0,0,376,168Z"/><path class="cls-3" d="M321.46,148.62a.54.54,0,0,0-.5-.56.53.53,0,0,0-.07,1.06A.54.54,0,0,0,321.46,148.62Z"/><path class="cls-4" d="M303.83,181.93a1.05,1.05,0,1,0-1.12,1A1.06,1.06,0,0,0,303.83,181.93Z"/><circle class="cls-4" cx="368.9" cy="225.4" r="1.58" transform="translate(-33.41 67.17) rotate(-9.95)"/><path class="cls-4" d="M332.31,236.72a.84.84,0,0,0-.79-.89.84.84,0,0,0-.1,1.67A.84.84,0,0,0,332.31,236.72Z"/><path class="cls-2" d="M323.63,3.92a.37.37,0,0,0-.35-.41.39.39,0,1,0,.35.41Z"/><path class="cls-2" d="M298.83,51.66a2.57,2.57,0,1,0-2.74,2.39A2.58,2.58,0,0,0,298.83,51.66Z"/><path class="cls-2" d="M237.8,1.66a1.55,1.55,0,1,0-1.65,1.44A1.54,1.54,0,0,0,237.8,1.66Z"/><path class="cls-4" d="M247.32,88.59a1.09,1.09,0,1,0-1.16,1A1.09,1.09,0,0,0,247.32,88.59Z"/><path class="cls-2" d="M268,106.39a1.54,1.54,0,1,0-1.64,1.44A1.55,1.55,0,0,0,268,106.39Z"/><path class="cls-2" d="M224.94,101.2a2.47,2.47,0,1,0-2.62,2.3A2.47,2.47,0,0,0,224.94,101.2Z"/><path class="cls-2" d="M45.45,228a2.23,2.23,0,1,0-2.37,2.08A2.23,2.23,0,0,0,45.45,228Z"/><path class="cls-4" d="M39.92,254.59a1.92,1.92,0,1,0-2,1.79A1.91,1.91,0,0,0,39.92,254.59Z"/><path class="cls-4" d="M22.84,233.21a1,1,0,0,0-2-.13,1,1,0,1,0,2,.13Z"/><path class="cls-4" d="M43.93,227.91a.71.71,0,0,0-.66-.76.72.72,0,0,0-.09,1.43A.71.71,0,0,0,43.93,227.91Z"/><path class="cls-5" d="M42.94,203.41a1.13,1.13,0,1,0-1.2,1.05A1.13,1.13,0,0,0,42.94,203.41Z"/><path class="cls-4" d="M23,233.22a1.17,1.17,0,1,0-1.25,1.1A1.17,1.17,0,0,0,23,233.22Z"/><path class="cls-4" d="M219,207.27a1.68,1.68,0,1,0-1.79,1.57A1.68,1.68,0,0,0,219,207.27Z"/><path class="cls-3" d="M246.39,216.09a.73.73,0,0,0-.68-.77.71.71,0,0,0-.77.68.73.73,0,0,0,1.45.09Z"/><path class="cls-2" d="M212.33,224.72a.6.6,0,1,0-.64.56A.61.61,0,0,0,212.33,224.72Z"/><path class="cls-4" d="M222.36,164.33a1.47,1.47,0,0,0-1.37-1.57,1.48,1.48,0,1,0-.2,3A1.47,1.47,0,0,0,222.36,164.33Z"/><path class="cls-5" d="M274.25,148.29a2.33,2.33,0,1,0-2.48,2.17A2.33,2.33,0,0,0,274.25,148.29Z"/><path class="cls-3" d="M232.74,168a.71.71,0,1,0-1.41-.09.71.71,0,0,0,1.41.09Z"/><path class="cls-2" d="M182.44,208.22a1.11,1.11,0,1,0-1.18,1A1.12,1.12,0,0,0,182.44,208.22Z"/><path class="cls-4" d="M172.74,226.78a2.27,2.27,0,1,0-2.42,2.13A2.27,2.27,0,0,0,172.74,226.78Z"/><path class="cls-2" d="M167.32,202a.61.61,0,0,0-.57-.66.62.62,0,1,0-.08,1.24A.62.62,0,0,0,167.32,202Z"/><path class="cls-3" d="M182.85,208.25a1.52,1.52,0,1,0-1.62,1.42A1.52,1.52,0,0,0,182.85,208.25Z"/><path class="cls-2" d="M199.36,236.15a2.77,2.77,0,1,0-3,2.59A2.77,2.77,0,0,0,199.36,236.15Z"/><path class="cls-3" d="M171.23,226.68a.76.76,0,1,0-.81.71A.76.76,0,0,0,171.23,226.68Z"/><path class="cls-5" d="M181.9,208.19a.57.57,0,0,0-.53-.61.57.57,0,0,0-.08,1.14A.57.57,0,0,0,181.9,208.19Z"/><path class="cls-2" d="M213,224.76a1.25,1.25,0,1,0-1.33,1.16A1.24,1.24,0,0,0,213,224.76Z"/><path class="cls-4" d="M198.56,236.1a2,2,0,1,0-2.09,1.84A2,2,0,0,0,198.56,236.1Z"/><path class="cls-2" d="M181.82,208.18a.49.49,0,1,0-.52.46A.49.49,0,0,0,181.82,208.18Z"/><path class="cls-2" d="M219,207.27a1.7,1.7,0,1,0-1.8,1.58A1.69,1.69,0,0,0,219,207.27Z"/><path class="cls-3" d="M212.31,224.71a.59.59,0,1,0-.62.55A.58.58,0,0,0,212.31,224.71Z"/><path class="cls-5" d="M337.06,237.27a1,1,0,1,0-2.07-.14,1,1,0,0,0,2.07.14Z"/><path class="cls-3" d="M370.3,225.49a1.4,1.4,0,1,0-1.49,1.31A1.4,1.4,0,0,0,370.3,225.49Z"/><path class="cls-3" d="M333.13,236.77a1.66,1.66,0,1,0-1.77,1.55A1.66,1.66,0,0,0,333.13,236.77Z"/><path class="cls-4" d="M63.39,218.1a1.65,1.65,0,1,0-1.76,1.54A1.66,1.66,0,0,0,63.39,218.1Z"/><path class="cls-2" d="M45.52,228a2.3,2.3,0,1,0-2.45,2.15A2.31,2.31,0,0,0,45.52,228Z"/><path class="cls-2" d="M43,203.41a1.19,1.19,0,1,0-2.38-.15,1.19,1.19,0,1,0,2.38.15Z"/><path class="cls-3" d="M157.13,127.89a.61.61,0,0,0-.57-.66.62.62,0,0,0-.66.58.61.61,0,0,0,.58.65A.6.6,0,0,0,157.13,127.89Z"/><path class="cls-5" d="M129.38,135.73a2.64,2.64,0,1,0-2.8,2.46A2.63,2.63,0,0,0,129.38,135.73Z"/><path class="cls-2" d="M128.68,129.73a2.81,2.81,0,1,0-3,2.62A2.81,2.81,0,0,0,128.68,129.73Z"/><path class="cls-5" d="M29.41,193.35a1.49,1.49,0,1,0-1.58,1.38A1.49,1.49,0,0,0,29.41,193.35Z"/><path class="cls-2" d="M55.23,177.51a1.6,1.6,0,1,0-1.7,1.49A1.59,1.59,0,0,0,55.23,177.51Z"/><path class="cls-4" d="M14.84,182.5A2.66,2.66,0,1,0,12,185,2.66,2.66,0,0,0,14.84,182.5Z"/><path class="cls-5" d="M29,193.32a1.06,1.06,0,1,0-1.12,1A1.05,1.05,0,0,0,29,193.32Z"/><path class="cls-4" d="M42.65,203.39a.83.83,0,1,0-.89.77A.83.83,0,0,0,42.65,203.39Z"/><path class="cls-3" d="M23.73,233.27a1.9,1.9,0,0,0-1.77-2,1.89,1.89,0,1,0,1.77,2Z"/><path class="cls-2" d="M28.39,193.28a.47.47,0,1,0-.5.44A.48.48,0,0,0,28.39,193.28Z"/><path class="cls-2" d="M53.86,177.42a.23.23,0,1,0-.45,0,.22.22,0,0,0,.21.23A.22.22,0,0,0,53.86,177.42Z"/><path class="cls-4" d="M42.54,203.38a.73.73,0,0,0-.67-.77.74.74,0,0,0-.78.68.73.73,0,0,0,.68.77A.72.72,0,0,0,42.54,203.38Z"/><path class="cls-2" d="M88.38,206.85a2.82,2.82,0,1,0-3,2.63A2.81,2.81,0,0,0,88.38,206.85Z"/><path class="cls-3" d="M55,177.49a1.39,1.39,0,1,0-1.48,1.3A1.4,1.4,0,0,0,55,177.49Z"/><path class="cls-3" d="M42.9,203.41a1.08,1.08,0,1,0-1.15,1A1.09,1.09,0,0,0,42.9,203.41Z"/><path class="cls-2" d="M86.22,206.71a.65.65,0,1,0-1.29-.08.65.65,0,0,0,1.29.08Z"/><path class="cls-2" d="M62.7,218.05a1,1,0,1,0-1,.9A1,1,0,0,0,62.7,218.05Z"/><path class="cls-5" d="M43.71,203.46a1.89,1.89,0,0,0-3.78-.25,1.89,1.89,0,0,0,3.78.25Z"/><path class="cls-3" d="M86.11,206.7a.54.54,0,1,0-.57.51A.54.54,0,0,0,86.11,206.7Z"/><path class="cls-2" d="M75.76,223a1.53,1.53,0,1,0-1.62,1.42A1.53,1.53,0,0,0,75.76,223Z"/><path class="cls-2" d="M64.1,218.14a2.37,2.37,0,1,0-2.51,2.21A2.36,2.36,0,0,0,64.1,218.14Z"/><path class="cls-4" d="M85.78,206.68a.21.21,0,0,0-.19-.22.2.2,0,0,0-.22.19.19.19,0,0,0,.19.22A.2.2,0,0,0,85.78,206.68Z"/><path class="cls-4" d="M123,219.48a2,2,0,1,0-2.16,1.89A2,2,0,0,0,123,219.48Z"/><path class="cls-4" d="M75.92,223a1.69,1.69,0,1,0-1.8,1.57A1.69,1.69,0,0,0,75.92,223Z"/><path class="cls-5" d="M353.22,249.17a.42.42,0,1,0-.84,0,.42.42,0,0,0,.39.44A.42.42,0,0,0,353.22,249.17Z"/><path class="cls-2" d="M338.23,237.34a2.21,2.21,0,1,0-2.35,2.07A2.21,2.21,0,0,0,338.23,237.34Z"/><path class="cls-3" d="M334.86,236.88a3.4,3.4,0,1,0-3.61,3.18A3.39,3.39,0,0,0,334.86,236.88Z"/><path class="cls-4" d="M353.49,249.19a.69.69,0,1,0-1.38-.09.69.69,0,0,0,1.38.09Z"/><path class="cls-2" d="M368.69,307.76a.73.73,0,1,0-1.46-.09.72.72,0,0,0,.68.77A.74.74,0,0,0,368.69,307.76Z"/><path class="cls-3" d="M331.43,298.65a2.41,2.41,0,1,0-2.57,2.26A2.41,2.41,0,0,0,331.43,298.65Z"/><path class="cls-2" d="M354.34,249.24a1.54,1.54,0,1,0-1.64,1.45A1.54,1.54,0,0,0,354.34,249.24Z"/><path class="cls-2" d="M369.45,225.43a.55.55,0,1,0-.58.51A.55.55,0,0,0,369.45,225.43Z"/><path class="cls-3" d="M338.08,237.33a2.06,2.06,0,0,0-4.11-.27,2.06,2.06,0,1,0,4.11.27Z"/><path class="cls-4" d="M134.94,291.43a1,1,0,0,0-.9-1,1,1,0,0,0-.12,1.91A1,1,0,0,0,134.94,291.43Z"/><path class="cls-4" d="M120.44,232a1.09,1.09,0,0,0-1-1.16,1.09,1.09,0,1,0-.14,2.18A1.08,1.08,0,0,0,120.44,232Z"/><path class="cls-2" d="M65,264.57a2.64,2.64,0,1,0-2.8,2.47A2.63,2.63,0,0,0,65,264.57Z"/><path class="cls-5" d="M134.45,291.4a.47.47,0,0,0-.44-.5.47.47,0,1,0-.06.94A.47.47,0,0,0,134.45,291.4Z"/><path class="cls-4" d="M158.14,271.73a1.36,1.36,0,1,0-1.45,1.27A1.36,1.36,0,0,0,158.14,271.73Z"/><path class="cls-5" d="M119.8,231.91a.44.44,0,0,0-.41-.47.45.45,0,0,0-.48.41.46.46,0,0,0,.42.48A.45.45,0,0,0,119.8,231.91Z"/><path class="cls-4" d="M352.71,59.23a1.91,1.91,0,1,0-2,1.77A1.91,1.91,0,0,0,352.71,59.23Z"/><path class="cls-4" d="M296.65,51.51a.4.4,0,0,0-.36-.41.38.38,0,0,0-.41.36.37.37,0,0,0,.36.41A.38.38,0,0,0,296.65,51.51Z"/><path class="cls-2" d="M283.11,66.49a1.27,1.27,0,0,0-1.18-1.35,1.27,1.27,0,1,0-.17,2.53A1.28,1.28,0,0,0,283.11,66.49Z"/><path class="cls-5" d="M353.78,59.29a3,3,0,1,0-3.17,2.78A3,3,0,0,0,353.78,59.29Z"/><path class="cls-2" d="M300.23,120.53a2,2,0,1,0-2.11,1.86A2,2,0,0,0,300.23,120.53Z"/><path class="cls-4" d="M282.64,66.45a.8.8,0,1,0-.85.75A.8.8,0,0,0,282.64,66.45Z"/><path class="cls-5" d="M351.83,59.17a1,1,0,0,0-1-1.09,1,1,0,1,0,1,1.09Z"/><path class="cls-3" d="M324.73,4a1.48,1.48,0,1,0-1.58,1.38A1.48,1.48,0,0,0,324.73,4Z"/><path class="cls-2" d="M297.63,51.58a1.37,1.37,0,1,0-1.46,1.28A1.36,1.36,0,0,0,297.63,51.58Z"/><path class="cls-2" d="M353.45,59.27a2.65,2.65,0,1,0-2.81,2.47A2.64,2.64,0,0,0,353.45,59.27Z"/><path class="cls-5" d="M393.07,109a3.75,3.75,0,1,0-4,3.5A3.76,3.76,0,0,0,393.07,109Z"/><path class="cls-4" d="M300.27,120.54a2,2,0,1,0-2.15,1.89A2,2,0,0,0,300.27,120.54Z"/><path class="cls-4" d="M351.57,59.15a.76.76,0,1,0-.81.71A.76.76,0,0,0,351.57,59.15Z"/><path class="cls-3" d="M390.22,108.76a.89.89,0,0,0-.83-1,.9.9,0,1,0-.12,1.79A.9.9,0,0,0,390.22,108.76Z"/><path class="cls-2" d="M388.37,67.27a.28.28,0,0,0-.27-.3.29.29,0,0,0,0,.58A.3.3,0,0,0,388.37,67.27Z"/><path class="cls-4" d="M391.28,235.8a2.65,2.65,0,1,0-2.81,2.47A2.65,2.65,0,0,0,391.28,235.8Z"/><path class="cls-2" d="M369.92,225.46a1,1,0,1,0-1.09.95A1,1,0,0,0,369.92,225.46Z"/><path class="cls-4" d="M353.7,249.2a.9.9,0,1,0-1,.84A.9.9,0,0,0,353.7,249.2Z"/><path class="cls-2" d="M390.49,235.75a1.85,1.85,0,1,0-2,1.72A1.86,1.86,0,0,0,390.49,235.75Z"/><path class="cls-4" d="M370,307.85a2,2,0,1,0-4.08-.27,2,2,0,0,0,4.08.27Z"/><path class="cls-2" d="M356.93,249.41a4.14,4.14,0,1,0-4.4,3.86A4.12,4.12,0,0,0,356.93,249.41Z"/><path class="cls-4" d="M257.34,215.73a1.69,1.69,0,1,0-1.79,1.57A1.69,1.69,0,0,0,257.34,215.73Z"/><path class="cls-2" d="M249.42,247.88a.46.46,0,1,0-.48.43A.45.45,0,0,0,249.42,247.88Z"/><path class="cls-3" d="M248.16,216.21a2.5,2.5,0,1,0-2.66,2.33A2.5,2.5,0,0,0,248.16,216.21Z"/><path class="cls-2" d="M256.52,215.68a.87.87,0,1,0-.92.81A.87.87,0,0,0,256.52,215.68Z"/><path class="cls-4" d="M285.32,245.69a.94.94,0,1,0-1,.88A.94.94,0,0,0,285.32,245.69Z"/><path class="cls-3" d="M250.94,248a2,2,0,1,0-2.1,1.85A2,2,0,0,0,250.94,248Z"/><path class="cls-5" d="M256.35,215.67a.7.7,0,1,0-.74.65A.7.7,0,0,0,256.35,215.67Z"/><path class="cls-2" d="M285.1,245.68a.72.72,0,0,0-.67-.76.7.7,0,0,0-.76.66.72.72,0,0,0,.67.77A.73.73,0,0,0,285.1,245.68Z"/><path class="cls-4" d="M282.31,218a1.49,1.49,0,1,0-1.59,1.39A1.49,1.49,0,0,0,282.31,218Z"/><path class="cls-2" d="M304,138.19a.56.56,0,1,0-.6.52A.56.56,0,0,0,304,138.19Z"/><path class="cls-2" d="M300,120.52a1.77,1.77,0,0,0-1.66-1.89,1.78,1.78,0,1,0,1.66,1.89Z"/><path class="cls-2" d="M297.22,144.06a.51.51,0,0,0-.48-.55.52.52,0,0,0-.07,1A.52.52,0,0,0,297.22,144.06Z"/><path class="cls-3" d="M304,138.18a.54.54,0,0,0-.51-.57.53.53,0,0,0-.57.5.54.54,0,0,0,.5.58A.55.55,0,0,0,304,138.18Z"/><path class="cls-3" d="M321.86,148.65a.94.94,0,1,0-1,.88A.94.94,0,0,0,321.86,148.65Z"/><path class="cls-3" d="M299.1,144.18a2.4,2.4,0,1,0-2.55,2.24A2.41,2.41,0,0,0,299.1,144.18Z"/><path class="cls-4" d="M305.65,138.29a2.24,2.24,0,1,0-2.38,2.09A2.24,2.24,0,0,0,305.65,138.29Z"/><path class="cls-2" d="M322,148.66a1,1,0,0,0-1-1.1,1,1,0,0,0-1.09,1,1,1,0,0,0,2.06.14Z"/><path class="cls-4" d="M300.27,120.54a2,2,0,1,0-2.15,1.89A2,2,0,0,0,300.27,120.54Z"/><path class="cls-2" d="M289.19,148.31a.67.67,0,0,0-.62-.71.67.67,0,0,0-.09,1.33A.68.68,0,0,0,289.19,148.31Z"/><path class="cls-5" d="M297.19,144.06a.48.48,0,0,0-.45-.51.47.47,0,0,0-.51.45.48.48,0,1,0,1,.06Z"/><path class="cls-2" d="M272.66,148.18a.74.74,0,0,0-.69-.79.75.75,0,0,0-.79.7.74.74,0,0,0,.69.79A.75.75,0,0,0,272.66,148.18Z"/><path class="cls-3" d="M290.88,148.42a2.37,2.37,0,1,0-2.51,2.2A2.36,2.36,0,0,0,290.88,148.42Z"/><path class="cls-2" d="M300.35,168.23a1.26,1.26,0,1,0-1.34,1.18A1.28,1.28,0,0,0,300.35,168.23Z"/><path class="cls-5" d="M272.65,148.18a.72.72,0,0,0-.68-.77.73.73,0,1,0,.68.77Z"/><path class="cls-3" d="M289.07,148.3a.56.56,0,0,0-.51-.59.56.56,0,0,0-.59.52.55.55,0,0,0,1.1.07Z"/><path class="cls-5" d="M301.08,168.28a2,2,0,1,0-2.12,1.86A2,2,0,0,0,301.08,168.28Z"/><path class="cls-4" d="M297.84,144.1a1.14,1.14,0,1,0-1.21,1.06A1.13,1.13,0,0,0,297.84,144.1Z"/><path class="cls-4" d="M207.24,151.3a1.32,1.32,0,0,0-2.64-.17,1.32,1.32,0,1,0,2.64.17Z"/><path class="cls-3" d="M185.36,108.39a1.94,1.94,0,1,0-2.07,1.81A1.95,1.95,0,0,0,185.36,108.39Z"/><path class="cls-2" d="M157.84,127.93a1.33,1.33,0,1,0-1.41,1.24A1.34,1.34,0,0,0,157.84,127.93Z"/><path class="cls-2" d="M206.69,151.27a.76.76,0,0,0-.72-.82.77.77,0,1,0-.1,1.54A.76.76,0,0,0,206.69,151.27Z"/><path class="cls-5" d="M205.24,100.15a.27.27,0,0,0-.24-.28.26.26,0,1,0,.24.28Z"/><path class="cls-5" d="M184.21,108.31a.79.79,0,0,0-.74-.84.79.79,0,1,0-.1,1.58A.79.79,0,0,0,184.21,108.31Z"/><path class="cls-2" d="M207.05,151.29a1.13,1.13,0,1,0-1.2,1.05A1.13,1.13,0,0,0,207.05,151.29Z"/><path class="cls-2" d="M223.49,101.1a1,1,0,1,0-1.07.94A1,1,0,0,0,223.49,101.1Z"/><path class="cls-5" d="M205.47,100.16a.49.49,0,0,0-.45-.51.48.48,0,1,0,.45.51Z"/><path class="cls-4" d="M207.53,151.32a1.61,1.61,0,1,0-3.21-.21,1.61,1.61,0,0,0,3.21.21Z"/><path class="cls-4" d="M273,148.2a1,1,0,0,0-1-1.09,1,1,0,1,0,1,1.09Z"/><path class="cls-4" d="M222.5,164.34a1.61,1.61,0,1,0-1.72,1.51A1.63,1.63,0,0,0,222.5,164.34Z"/><path class="cls-2" d="M223.71,84.54a.3.3,0,0,0-.29-.32.31.31,0,1,0,0,.61A.31.31,0,0,0,223.71,84.54Z"/><path class="cls-4" d="M223.09,101.08a.61.61,0,1,0-.65.56A.61.61,0,0,0,223.09,101.08Z"/><path class="cls-4" d="M205.88,100.19a.9.9,0,1,0-.95.84A.9.9,0,0,0,205.88,100.19Z"/><path class="cls-4" d="M224.73,84.61a1.33,1.33,0,1,0-1.41,1.25A1.33,1.33,0,0,0,224.73,84.61Z"/><path class="cls-2" d="M269.32,66.66a2.2,2.2,0,1,0-2.34,2A2.2,2.2,0,0,0,269.32,66.66Z"/><path class="cls-4" d="M229,8.23a1.07,1.07,0,0,0-1-1.12,1.06,1.06,0,0,0-.14,2.11A1.08,1.08,0,0,0,229,8.23Z"/><path class="cls-5" d="M227.63,84.8a4.23,4.23,0,1,0-4.5,4A4.24,4.24,0,0,0,227.63,84.8Z"/><path class="cls-2" d="M247.09,88.57a.86.86,0,0,0-1.71-.11.86.86,0,1,0,1.71.11Z"/><path class="cls-2" d="M223.45,101.1a1,1,0,1,0-1,.9A1,1,0,0,0,223.45,101.1Z"/><path class="cls-2" d="M225,84.63a1.6,1.6,0,1,0-1.7,1.49A1.61,1.61,0,0,0,225,84.63Z"/><path class="cls-2" d="M268.38,66.6A1.26,1.26,0,1,0,267,67.77,1.26,1.26,0,0,0,268.38,66.6Z"/><path class="cls-2" d="M247.79,88.62a1.56,1.56,0,1,0-1.66,1.45A1.56,1.56,0,0,0,247.79,88.62Z"/><path class="cls-4" d="M269.9,101.87a.49.49,0,0,0-.46-.53.5.5,0,0,0-.53.46.51.51,0,0,0,.47.53A.49.49,0,0,0,269.9,101.87Z"/><path class="cls-2" d="M268.41,66.6A1.29,1.29,0,1,0,267,67.8,1.28,1.28,0,0,0,268.41,66.6Z"/><path class="cls-5" d="M246.61,88.54a.38.38,0,0,0-.35-.4.38.38,0,0,0-.4.35.37.37,0,0,0,.35.4A.37.37,0,0,0,246.61,88.54Z"/><path class="cls-4" d="M271.23,102a1.81,1.81,0,0,0-1.7-1.94,1.83,1.83,0,1,0,1.7,1.94Z"/><path class="cls-3" d="M267.22,106.34a.8.8,0,0,0-.74-.84.79.79,0,1,0-.1,1.58A.81.81,0,0,0,267.22,106.34Z"/><path class="cls-2" d="M247.55,88.6a1.32,1.32,0,1,0-1.4,1.24A1.32,1.32,0,0,0,247.55,88.6Z"/><path class="cls-4" d="M270.81,101.92a1.4,1.4,0,1,0-1.49,1.31A1.4,1.4,0,0,0,270.81,101.92Z"/><path class="cls-4" d="M282.68,66.46a.84.84,0,1,0-.89.78A.84.84,0,0,0,282.68,66.46Z"/><path class="cls-2" d="M268.33,66.59a1.21,1.21,0,1,0-1.28,1.13A1.2,1.2,0,0,0,268.33,66.59Z"/><path class="cls-4" d="M270.17,101.88a.76.76,0,1,0-.81.71A.77.77,0,0,0,270.17,101.88Z"/><path class="cls-3" d="M299.69,120.5a1.44,1.44,0,1,0-1.54,1.35A1.45,1.45,0,0,0,299.69,120.5Z"/><path class="cls-4" d="M266.89,106.32a.47.47,0,0,0-.43-.49.45.45,0,0,0-.49.43.46.46,0,0,0,.43.49A.47.47,0,0,0,266.89,106.32Z"/><path class="cls-4" d="M270.63,101.91a1.22,1.22,0,0,0-2.44-.16,1.22,1.22,0,1,0,2.44.16Z"/><path class="cls-5" d="M299,120.45a.72.72,0,1,0-.77.67A.72.72,0,0,0,299,120.45Z"/><path class="cls-2" d="M283.25,66.49a1.41,1.41,0,1,0-1.5,1.32A1.42,1.42,0,0,0,283.25,66.49Z"/><path class="cls-2" d="M410.65,56.45a2.25,2.25,0,1,0-2.39,2.1A2.25,2.25,0,0,0,410.65,56.45Z"/><path class="cls-4" d="M391.33,108.84a2,2,0,1,0-2.13,1.87A2,2,0,0,0,391.33,108.84Z"/><path class="cls-2" d="M389.86,67.37A1.78,1.78,0,1,0,388,69,1.79,1.79,0,0,0,389.86,67.37Z"/><path class="cls-2" d="M69.69,161.64a1.11,1.11,0,1,0-1.18,1A1.1,1.1,0,0,0,69.69,161.64Z"/><path class="cls-2" d="M138.32,184.72a2.59,2.59,0,1,0-2.76,2.41A2.6,2.6,0,0,0,138.32,184.72Z"/><path class="cls-4" d="M125.18,219.62a4.22,4.22,0,1,0-4.49,3.94A4.22,4.22,0,0,0,125.18,219.62Z"/><path class="cls-4" d="M87.57,206.8a2,2,0,1,0-2.13,1.87A2,2,0,0,0,87.57,206.8Z"/><path class="cls-3" d="M136.26,184.58a.53.53,0,1,0-.56.5A.53.53,0,0,0,136.26,184.58Z"/><path class="cls-2" d="M168,202a1.3,1.3,0,0,0-1.21-1.38,1.31,1.31,0,0,0-1.38,1.21A1.3,1.3,0,0,0,168,202Z"/><path class="cls-5" d="M122,219.42a1.08,1.08,0,1,0-1.14,1A1.07,1.07,0,0,0,122,219.42Z"/><path class="cls-2" d="M290.87,270a.33.33,0,0,0-.31-.35.33.33,0,1,0,.31.35Z"/><path class="cls-5" d="M272.66,303.88a1.25,1.25,0,1,0-2.5-.16,1.25,1.25,0,1,0,2.5.16Z"/><path class="cls-3" d="M250.3,247.94a1.34,1.34,0,0,0-2.67-.18,1.34,1.34,0,1,0,2.67.18Z"/><path class="cls-2" d="M149.88,145.06a1.44,1.44,0,1,0-1.53,1.35A1.45,1.45,0,0,0,149.88,145.06Z"/><path class="cls-4" d="M141.8,147a1.71,1.71,0,1,0-1.83,1.6A1.72,1.72,0,0,0,141.8,147Z"/><path class="cls-2" d="M127.94,135.64a1.19,1.19,0,1,0-1.27,1.11A1.2,1.2,0,0,0,127.94,135.64Z"/><path class="cls-3" d="M150.11,145.07a1.67,1.67,0,1,0-1.78,1.56A1.67,1.67,0,0,0,150.11,145.07Z"/><path class="cls-2" d="M159.37,128a2.86,2.86,0,1,0-3,2.67A2.87,2.87,0,0,0,159.37,128Z"/><path class="cls-2" d="M128.84,135.7a2.09,2.09,0,1,0-2.23,2A2.1,2.1,0,0,0,128.84,135.7Z"/><path class="cls-4" d="M149.15,145a.71.71,0,1,0-1.42-.09.71.71,0,0,0,.66.75A.71.71,0,0,0,149.15,145Z"/><path class="cls-4" d="M142.59,147.09a2.51,2.51,0,1,0-2.67,2.34A2.51,2.51,0,0,0,142.59,147.09Z"/><path class="cls-2" d="M136.38,184.59a.66.66,0,0,0-.61-.69.65.65,0,1,0,.61.69Z"/><path class="cls-5" d="M149.66,145a1.22,1.22,0,1,0-1.3,1.15A1.22,1.22,0,0,0,149.66,145Z"/><path class="cls-3" d="M208,151.35a2.08,2.08,0,1,0-2.21,2A2.09,2.09,0,0,0,208,151.35Z"/><path class="cls-5" d="M159,128a2.51,2.51,0,1,0-2.67,2.34A2.51,2.51,0,0,0,159,128Z"/><path class="cls-4" d="M153.89,81.78a.53.53,0,0,0-.5-.57.54.54,0,0,0-.57.5.54.54,0,0,0,1.07.07Z"/><path class="cls-4" d="M185,108.37a1.59,1.59,0,1,0-3.18-.21,1.59,1.59,0,0,0,3.18.21Z"/><path class="cls-2" d="M157.49,127.91a1,1,0,1,0-1,.91A1,1,0,0,0,157.49,127.91Z"/><path class="cls-5" d="M183.16,71.17a1.59,1.59,0,1,0-1.69,1.48A1.58,1.58,0,0,0,183.16,71.17Z"/><path class="cls-3" d="M185.14,108.37a1.73,1.73,0,1,0-1.83,1.62A1.72,1.72,0,0,0,185.14,108.37Z"/><path class="cls-4" d="M154.67,81.83a1.32,1.32,0,1,0-1.4,1.23A1.33,1.33,0,0,0,154.67,81.83Z"/><path class="cls-2" d="M184,71.23a2.47,2.47,0,1,0-2.63,2.3A2.49,2.49,0,0,0,184,71.23Z"/><path class="cls-4" d="M230.74,8.35a2.84,2.84,0,1,0-3,2.64A2.84,2.84,0,0,0,230.74,8.35Z"/><path class="cls-4" d="M174.58,16a2.85,2.85,0,1,0-3,2.65A2.85,2.85,0,0,0,174.58,16Z"/><path class="cls-3" d="M183.07,71.16a1.5,1.5,0,1,0-1.59,1.4A1.5,1.5,0,0,0,183.07,71.16Z"/><path class="cls-3" d="M205.69,100.18a.71.71,0,1,0-.75.66A.7.7,0,0,0,205.69,100.18Z"/><path class="cls-5" d="M183.93,108.3a.51.51,0,1,0-1-.07.51.51,0,0,0,1,.07Z"/><path class="cls-5" d="M182.56,71.13a1,1,0,1,0-1.05.92A1,1,0,0,0,182.56,71.13Z"/><path class="cls-4" d="M224.21,84.58a.81.81,0,1,0-.86.75A.81.81,0,0,0,224.21,84.58Z"/><path class="cls-3" d="M208.06,100.33a3.08,3.08,0,1,0-3.28,2.88A3.08,3.08,0,0,0,208.06,100.33Z"/><path class="cls-4" d="M184.64,71.27a3.07,3.07,0,1,0-3.27,2.86A3.08,3.08,0,0,0,184.64,71.27Z"/><path class="cls-4" d="M226.54,84.73a3.14,3.14,0,1,0-3.34,2.93A3.14,3.14,0,0,0,226.54,84.73Z"/><path class="cls-5" d="M228.46,8.2a.55.55,0,1,0-1.1-.07.55.55,0,0,0,1.1.07Z"/><path class="cls-3" d="M308.2,246.59a.79.79,0,1,0-.84.74A.79.79,0,0,0,308.2,246.59Z"/><path class="cls-5" d="M297.72,246a2.45,2.45,0,0,0-2.28-2.59,2.44,2.44,0,1,0,2.28,2.59Z"/><path class="cls-4" d="M282.34,218a1.53,1.53,0,1,0-1.62,1.42A1.52,1.52,0,0,0,282.34,218Z"/><path class="cls-3" d="M309,246.64a1.58,1.58,0,1,0-1.69,1.48A1.59,1.59,0,0,0,309,246.64Z"/><path class="cls-3" d="M332.86,236.75a1.39,1.39,0,1,0-1.48,1.31A1.39,1.39,0,0,0,332.86,236.75Z"/><circle class="cls-4" cx="280.82" cy="217.86" r="3.95"/><path class="cls-4" d="M308.62,246.62a1.21,1.21,0,1,0-1.28,1.12A1.2,1.2,0,0,0,308.62,246.62Z"/><path class="cls-2" d="M295.83,245.9a.55.55,0,1,0-.58.51A.55.55,0,0,0,295.83,245.9Z"/><path class="cls-4" d="M293.43,270.18a2.9,2.9,0,1,0-3.08,2.7A2.88,2.88,0,0,0,293.43,270.18Z"/><path class="cls-3" d="M308.68,246.62a1.27,1.27,0,0,0-2.53-.16,1.27,1.27,0,0,0,2.53.16Z"/><path class="cls-3" d="M353.69,249.2a.89.89,0,0,0-1.78-.12.89.89,0,0,0,1.78.12Z"/><path class="cls-5" d="M332.47,236.73a1,1,0,1,0-1.07.94A1,1,0,0,0,332.47,236.73Z"/><path class="cls-3" d="M379.51,202.13a.87.87,0,1,0-.92.8A.86.86,0,0,0,379.51,202.13Z"/><path class="cls-4" d="M370.05,225.47a1.15,1.15,0,1,0-1.22,1.08A1.16,1.16,0,0,0,370.05,225.47Z"/><path class="cls-2" d="M303.46,181.9a.68.68,0,0,0-1.36-.09.68.68,0,1,0,1.36.09Z"/><path class="cls-4" d="M379.47,202.12a.82.82,0,1,0-1.64-.1.82.82,0,1,0,1.64.1Z"/><path class="cls-3" d="M377.51,168.14a1.86,1.86,0,1,0-2,1.74A1.85,1.85,0,0,0,377.51,168.14Z"/><path class="cls-5" d="M304.72,182a1.94,1.94,0,1,0-2.07,1.81A1.94,1.94,0,0,0,304.72,182Z"/><path class="cls-5" d="M283.37,249.62a1.31,1.31,0,0,0-1.21-1.38,1.3,1.3,0,1,0-.17,2.59A1.3,1.3,0,0,0,283.37,249.62Z"/><path class="cls-5" d="M286,246.33a1.53,1.53,0,1,0-1.63,1.43A1.53,1.53,0,0,0,286,246.33Z"/><path class="cls-4" d="M285.56,245.71a1.18,1.18,0,1,0-1.25,1.1A1.19,1.19,0,0,0,285.56,245.71Z"/><path class="cls-3" d="M283.09,249.6a1,1,0,1,0-2-.13,1,1,0,0,0,2,.13Z"/><path class="cls-4" d="M298.35,246.07a3.08,3.08,0,1,0-3.27,2.86A3.07,3.07,0,0,0,298.35,246.07Z"/><path class="cls-5" d="M285.17,246.28a.67.67,0,1,0-1.34-.09.68.68,0,0,0,.63.72A.67.67,0,0,0,285.17,246.28Z"/><path class="cls-4" d="M283.27,249.61a1.2,1.2,0,1,0-1.28,1.12A1.2,1.2,0,0,0,283.27,249.61Z"/><path class="cls-3" d="M296.09,245.92a.81.81,0,1,0-.86.75A.81.81,0,0,0,296.09,245.92Z"/><path class="cls-2" d="M291.28,270a.74.74,0,0,0-.69-.78.74.74,0,0,0-.1,1.47A.74.74,0,0,0,291.28,270Z"/><path class="cls-5" d="M191.14,177.79a.86.86,0,0,0-.81-.92.87.87,0,1,0-.11,1.73A.86.86,0,0,0,191.14,177.79Z"/><path class="cls-4" d="M149,145a.55.55,0,1,0-.59.51A.55.55,0,0,0,149,145Z"/><path class="cls-3" d="M137.2,184.64a1.47,1.47,0,1,0-1.56,1.38A1.47,1.47,0,0,0,137.2,184.64Z"/><path class="cls-2" d="M192.27,177.87a2,2,0,1,0-2.13,1.86A2,2,0,0,0,192.27,177.87Z"/><path class="cls-4" d="M168.07,202a1.36,1.36,0,1,0-1.45,1.27A1.37,1.37,0,0,0,168.07,202Z"/><path class="cls-5" d="M136.54,184.6a.81.81,0,0,0-.75-.86.81.81,0,1,0-.11,1.62A.81.81,0,0,0,136.54,184.6Z"/><path class="cls-3" d="M191.65,177.83a1.38,1.38,0,1,0-2.75-.18,1.37,1.37,0,0,0,1.28,1.46A1.38,1.38,0,0,0,191.65,177.83Z"/><path class="cls-2" d="M206.39,151.25a.46.46,0,0,0-.44-.5.47.47,0,0,0-.06.94A.46.46,0,0,0,206.39,151.25Z"/><path class="cls-4" d="M149.55,145a1.12,1.12,0,1,0-1.18,1A1.11,1.11,0,0,0,149.55,145Z"/><path class="cls-4" d="M192,177.85a1.71,1.71,0,1,0-1.82,1.59A1.71,1.71,0,0,0,192,177.85Z"/><path class="cls-2" d="M183.13,208.27a1.8,1.8,0,1,0-1.92,1.68A1.8,1.8,0,0,0,183.13,208.27Z"/><path class="cls-4" d="M168,202a1.29,1.29,0,0,0-2.57-.17A1.29,1.29,0,0,0,168,202Z"/><path class="cls-2" d="M192.79,177.9a2.53,2.53,0,1,0-2.68,2.35A2.52,2.52,0,0,0,192.79,177.9Z"/><path class="cls-4" d="M220.16,207.34a2.87,2.87,0,1,0-3,2.68A2.87,2.87,0,0,0,220.16,207.34Z"/><path class="cls-3" d="M182.67,208.24a1.34,1.34,0,1,0-1.43,1.25A1.35,1.35,0,0,0,182.67,208.24Z"/><path class="cls-4" d="M191.72,177.83a1.45,1.45,0,1,0-1.54,1.35A1.45,1.45,0,0,0,191.72,177.83Z"/><path class="cls-2" d="M221.45,164.27a.56.56,0,0,0-.52-.6.57.57,0,0,0-.6.53.56.56,0,0,0,.52.6A.57.57,0,0,0,221.45,164.27Z"/><path class="cls-5" d="M208.88,151.41a3,3,0,1,0-3.15,2.76A3,3,0,0,0,208.88,151.41Z"/><path class="cls-5" d="M192.53,177.88a2.26,2.26,0,1,0-2.4,2.11A2.27,2.27,0,0,0,192.53,177.88Z"/><path class="cls-4" d="M233.74,168.06a1.71,1.71,0,1,0-1.82,1.59A1.71,1.71,0,0,0,233.74,168.06Z"/><path class="cls-4" d="M217.64,207.18a.35.35,0,0,0-.32-.37.36.36,0,0,0-.37.33.35.35,0,0,0,.33.36A.34.34,0,0,0,217.64,207.18Z"/><path class="cls-5" d="M191.52,177.82a1.25,1.25,0,0,0-2.49-.17,1.24,1.24,0,0,0,1.16,1.33A1.25,1.25,0,0,0,191.52,177.82Z"/><path class="cls-2" d="M233.33,168a1.3,1.3,0,1,0-1.38,1.2A1.31,1.31,0,0,0,233.33,168Z"/><path class="cls-5" d="M223.19,164.39a2.3,2.3,0,1,0-2.45,2.14A2.31,2.31,0,0,0,223.19,164.39Z"/><path class="cls-3" d="M398.5,22.63a1.33,1.33,0,0,0-1.25-1.41,1.32,1.32,0,0,0-1.41,1.24,1.33,1.33,0,0,0,1.24,1.42A1.35,1.35,0,0,0,398.5,22.63Z"/><path class="cls-4" d="M353.05,59.25a2.25,2.25,0,1,0-2.39,2.09A2.25,2.25,0,0,0,353.05,59.25Z"/><path class="cls-2" d="M323.9,3.94a.65.65,0,0,0-1.29-.09.64.64,0,0,0,.6.69A.66.66,0,0,0,323.9,3.94Z"/><path class="cls-4" d="M399.09,22.67a1.93,1.93,0,1,0-2,1.8A1.93,1.93,0,0,0,399.09,22.67Z"/><path class="cls-5" d="M388.52,67.28a.45.45,0,1,0-.89,0,.45.45,0,0,0,.42.47A.43.43,0,0,0,388.52,67.28Z"/><path class="cls-2" d="M352.18,59.19a1.38,1.38,0,0,0-2.75-.18,1.38,1.38,0,1,0,2.75.18Z"/><path class="cls-5" d="M399.06,22.67a1.9,1.9,0,1,0-2,1.77A1.89,1.89,0,0,0,399.06,22.67Z"/><path class="cls-5" d="M409.38,56.37a1,1,0,1,0-1,.91A1,1,0,0,0,409.38,56.37Z"/><path class="cls-4" d="M388.85,67.31a.78.78,0,0,0-.72-.82.77.77,0,1,0,.72.82Z"/><path class="cls-2" d="M399.53,22.7A2.37,2.37,0,1,0,397,24.91,2.36,2.36,0,0,0,399.53,22.7Z"/><path class="cls-2" d="M431.34,52.2a2.25,2.25,0,1,0-2.4,2.1A2.25,2.25,0,0,0,431.34,52.2Z"/><path class="cls-4" d="M409.44,56.37a1,1,0,1,0-2.06-.13,1,1,0,0,0,2.06.13Z"/><path class="cls-3" d="M279.16,252.21a2.64,2.64,0,1,0-2.8,2.45A2.65,2.65,0,0,0,279.16,252.21Z"/><path class="cls-2" d="M284.72,245.65a.34.34,0,1,0-.36.31A.33.33,0,0,0,284.72,245.65Z"/><path class="cls-4" d="M249.57,247.89a.61.61,0,1,0-.64.56A.6.6,0,0,0,249.57,247.89Z"/><path class="cls-2" d="M277.6,252.1a1.07,1.07,0,0,0-2.14-.14,1.07,1.07,0,0,0,2.14.14Z"/><path class="cls-5" d="M292,270.09a1.43,1.43,0,1,0-1.52,1.33A1.43,1.43,0,0,0,292,270.09Z"/><path class="cls-2" d="M249.9,247.91a.94.94,0,1,0-1,.87A.94.94,0,0,0,249.9,247.91Z"/><path class="cls-4" d="M279.78,252.25a3.25,3.25,0,1,0-3.46,3A3.26,3.26,0,0,0,279.78,252.25Z"/><path class="cls-3" d="M286.1,245.74a1.72,1.72,0,1,0-1.83,1.61A1.71,1.71,0,0,0,286.1,245.74Z"/><path class="cls-2" d="M283.41,249.62a1.34,1.34,0,1,0-1.43,1.25A1.34,1.34,0,0,0,283.41,249.62Z"/><path class="cls-5" d="M278.19,252.14a1.66,1.66,0,1,0-1.77,1.55A1.67,1.67,0,0,0,278.19,252.14Z"/><path class="cls-4" d="M291.44,270.05a.9.9,0,0,0-1.8-.11.92.92,0,0,0,.84,1A.91.91,0,0,0,291.44,270.05Z"/><path class="cls-2" d="M285.38,249.75a3.31,3.31,0,1,0-3.52,3.09A3.31,3.31,0,0,0,285.38,249.75Z"/><path class="cls-3" d="M49.17,164.59a1.81,1.81,0,1,0-1.93,1.69A1.8,1.8,0,0,0,49.17,164.59Z"/><path class="cls-2" d="M13.19,182.39a1,1,0,1,0-1.07.94A1,1,0,0,0,13.19,182.39Z"/><path class="cls-2" d="M48.12,164.53a.77.77,0,1,0-1.53-.1.78.78,0,0,0,.72.81A.76.76,0,0,0,48.12,164.53Z"/><path class="cls-2" d="M49.34,164.6a2,2,0,1,0-2.11,1.85A2,2,0,0,0,49.34,164.6Z"/><path class="cls-2" d="M55.05,177.5a1.42,1.42,0,1,0-1.51,1.32A1.42,1.42,0,0,0,55.05,177.5Z"/><path class="cls-4" d="M13.25,182.4a1.06,1.06,0,1,0-1.13,1A1.06,1.06,0,0,0,13.25,182.4Z"/><path class="cls-4" d="M49.43,164.61a2.07,2.07,0,1,0-2.21,1.93A2.07,2.07,0,0,0,49.43,164.61Z"/><path class="cls-3" d="M70.52,161.69a1.94,1.94,0,1,0-2.06,1.81A1.93,1.93,0,0,0,70.52,161.69Z"/><path class="cls-5" d="M48.32,164.54a1,1,0,1,0-1,.9A1,1,0,0,0,48.32,164.54Z"/><path class="cls-3" d="M70.4,161.69a1.82,1.82,0,1,0-1.93,1.69A1.82,1.82,0,0,0,70.4,161.69Z"/><path class="cls-2" d="M54.32,177.45a.7.7,0,0,0-.64-.73.69.69,0,0,0-.73.64.69.69,0,0,0,1.37.09Z"/><path class="cls-5" d="M120.61,96.89a2.56,2.56,0,1,0-2.72,2.39A2.56,2.56,0,0,0,120.61,96.89Z"/><path class="cls-5" d="M120.77,96.9a2.72,2.72,0,1,0-2.89,2.54A2.71,2.71,0,0,0,120.77,96.9Z"/><path class="cls-4" d="M120,96.85a1.95,1.95,0,1,0-2.07,1.82A2,2,0,0,0,120,96.85Z"/><path class="cls-2" d="M119.31,96.81A1.26,1.26,0,1,0,118,98,1.26,1.26,0,0,0,119.31,96.81Z"/><path class="cls-4" d="M127.3,129.64a1.43,1.43,0,1,0-1.52,1.33A1.42,1.42,0,0,0,127.3,129.64Z"/><path class="cls-4" d="M119.2,96.8A1.15,1.15,0,1,0,118,97.87,1.15,1.15,0,0,0,119.2,96.8Z"/><path class="cls-3" d="M128.07,71.87a1.9,1.9,0,1,0-2,1.77A1.91,1.91,0,0,0,128.07,71.87Z"/><path class="cls-3" d="M119.54,96.82A1.49,1.49,0,1,0,118,98.21,1.49,1.49,0,0,0,119.54,96.82Z"/><path class="cls-3" d="M153.92,81.78a.57.57,0,1,0-.6.53A.57.57,0,0,0,153.92,81.78Z"/><path class="cls-2" d="M126.88,71.79a.71.71,0,0,0-1.42-.1.71.71,0,1,0,1.42.1Z"/><path class="cls-4" d="M119,96.79a1,1,0,1,0-1,.91A1,1,0,0,0,119,96.79Z"/><path class="cls-2" d="M157.2,127.89a.68.68,0,0,0-.64-.72.68.68,0,0,0-.73.63.7.7,0,0,0,.64.73A.69.69,0,0,0,157.2,127.89Z"/><path class="cls-4" d="M127.77,129.67a1.89,1.89,0,1,0-2,1.76A1.91,1.91,0,0,0,127.77,129.67Z"/><path class="cls-2" d="M119.73,96.83A1.68,1.68,0,1,0,118,98.4,1.68,1.68,0,0,0,119.73,96.83Z"/><path class="cls-3" d="M157.16,127.89a.64.64,0,0,0-.6-.68.63.63,0,0,0-.68.59.64.64,0,0,0,.59.69A.66.66,0,0,0,157.16,127.89Z"/><path class="cls-5" d="M155,81.85a1.61,1.61,0,1,0-1.71,1.5A1.6,1.6,0,0,0,155,81.85Z"/><path class="cls-5" d="M394.17,180.31a.81.81,0,1,0-.86.76A.81.81,0,0,0,394.17,180.31Z"/><path class="cls-5" d="M379.23,202.11a.58.58,0,0,0-.54-.63.59.59,0,0,0-.63.55.6.6,0,0,0,.55.63A.59.59,0,0,0,379.23,202.11Z"/><path class="cls-3" d="M376.09,168.05a.45.45,0,0,0-.41-.47.44.44,0,0,0-.46.41.42.42,0,0,0,.4.46A.44.44,0,0,0,376.09,168.05Z"/><path class="cls-4" d="M396,180.43a2.61,2.61,0,1,0-2.77,2.43A2.61,2.61,0,0,0,396,180.43Z"/><path class="cls-5" d="M407.64,134.58a1.81,1.81,0,1,0-1.92,1.68A1.8,1.8,0,0,0,407.64,134.58Z"/><path class="cls-4" d="M378,168.17a2.38,2.38,0,1,0-2.52,2.21A2.37,2.37,0,0,0,378,168.17Z"/><path class="cls-5" d="M394.62,180.34a1.26,1.26,0,1,0-1.34,1.18A1.28,1.28,0,0,0,394.62,180.34Z"/><path class="cls-4" d="M447,151.69a2.93,2.93,0,1,0-3.11,2.74A2.92,2.92,0,0,0,447,151.69Z"/><path class="cls-2" d="M406.64,134.51a.8.8,0,0,0-.75-.85.81.81,0,1,0-.11,1.61A.81.81,0,0,0,406.64,134.51Z"/><path class="cls-4" d="M106.72,151.06a3.12,3.12,0,1,0-3.31,2.91A3.11,3.11,0,0,0,106.72,151.06Z"/><path class="cls-2" d="M68.92,161.59a.33.33,0,0,0-.31-.35.33.33,0,0,0-.36.31.34.34,0,0,0,.67,0Z"/><path class="cls-2" d="M104.7,150.93a1.1,1.1,0,1,0-1.16,1A1.1,1.1,0,0,0,104.7,150.93Z"/><path class="cls-4" d="M127.19,129.63a1.32,1.32,0,1,0-2.63-.17,1.32,1.32,0,0,0,2.63.17Z"/><path class="cls-3" d="M104.8,150.94a1.19,1.19,0,1,0-1.27,1.11A1.2,1.2,0,0,0,104.8,150.94Z"/><path class="cls-4" d="M128.28,135.66a1.53,1.53,0,1,0-1.63,1.43A1.55,1.55,0,0,0,128.28,135.66Z"/><path class="cls-3" d="M127.89,129.67a2,2,0,1,0-2.14,1.89A2,2,0,0,0,127.89,129.67Z"/><path class="cls-5" d="M104.21,150.9a.61.61,0,0,0-.56-.65.61.61,0,0,0-.65.57.6.6,0,0,0,.57.64A.6.6,0,0,0,104.21,150.9Z"/><path class="cls-4" d="M141.43,147a1.35,1.35,0,1,0-1.43,1.25A1.35,1.35,0,0,0,141.43,147Z"/><path class="cls-4" d="M127.71,135.62a1,1,0,1,0-1.91-.12,1,1,0,0,0,.89,1A1,1,0,0,0,127.71,135.62Z"/><path class="cls-3" d="M106,151a2.35,2.35,0,1,0-2.51,2.2A2.35,2.35,0,0,0,106,151Z"/><path class="cls-4" d="M140.55,147a.47.47,0,1,0-.49.43A.46.46,0,0,0,140.55,147Z"/><path class="cls-3" d="M138,184.7a2.26,2.26,0,1,0-2.4,2.11A2.26,2.26,0,0,0,138,184.7Z"/><path class="cls-3" d="M262.87,120.6a1,1,0,0,0-.94-1.07,1,1,0,0,0-1.07.94,1,1,0,0,0,.94,1.07A1,1,0,0,0,262.87,120.6Z"/><path class="cls-4" d="M224.06,101.14a1.58,1.58,0,0,0-3.16-.21,1.58,1.58,0,1,0,3.16.21Z"/><path class="cls-4" d="M206.65,151.27a.74.74,0,0,0-.68-.78.73.73,0,0,0-.77.68.72.72,0,0,0,.67.77A.73.73,0,0,0,206.65,151.27Z"/><path class="cls-3" d="M262.7,120.59a.84.84,0,1,0-.89.78A.84.84,0,0,0,262.7,120.59Z"/><path class="cls-2" d="M272.65,148.18a.73.73,0,1,0-.77.68A.73.73,0,0,0,272.65,148.18Z"/><path class="cls-5" d="M207.49,151.32a1.57,1.57,0,1,0-1.67,1.47A1.56,1.56,0,0,0,207.49,151.32Z"/><path class="cls-2" d="M263,120.61a1.17,1.17,0,1,0-1.25,1.09A1.17,1.17,0,0,0,263,120.61Z"/><path class="cls-2" d="M268.36,106.41a1.93,1.93,0,1,0-2.06,1.81A1.93,1.93,0,0,0,268.36,106.41Z"/><path class="cls-5" d="M223.46,101.1a1,1,0,1,0-1,.91A1,1,0,0,0,223.46,101.1Z"/><path class="cls-2" d="M264.54,120.71a2.69,2.69,0,1,0-2.85,2.5A2.67,2.67,0,0,0,264.54,120.71Z"/><path class="cls-4" d="M299.39,120.48a1.16,1.16,0,0,0-1.07-1.22,1.15,1.15,0,1,0,1.07,1.22Z"/><path class="cls-4" d="M267.51,106.36a1.08,1.08,0,1,0-1.15,1A1.09,1.09,0,0,0,267.51,106.36Z"/><path class="cls-4" d="M263.68,120.65a1.82,1.82,0,1,0-1.94,1.7A1.82,1.82,0,0,0,263.68,120.65Z"/><path class="cls-2" d="M297.5,144.08a.8.8,0,1,0-.84.75A.8.8,0,0,0,297.5,144.08Z"/><path class="cls-3" d="M272.35,148.16a.43.43,0,0,0-.4-.45.42.42,0,0,0-.45.4.42.42,0,0,0,.39.45A.43.43,0,0,0,272.35,148.16Z"/><path class="cls-2" d="M263.53,120.64a1.67,1.67,0,1,0-1.78,1.56A1.67,1.67,0,0,0,263.53,120.64Z"/><path class="cls-5" d="M298.43,144.14a1.72,1.72,0,1,0-1.84,1.61A1.72,1.72,0,0,0,298.43,144.14Z"/><path class="cls-4" d="M299.44,120.48a1.19,1.19,0,1,0-2.38-.15,1.19,1.19,0,1,0,2.38.15Z"/><path class="cls-5" d="M398.26,217.06a2.4,2.4,0,1,0-2.55,2.23A2.39,2.39,0,0,0,398.26,217.06Z"/><path class="cls-4" d="M381,202.22a2.31,2.31,0,1,0-2.45,2.16A2.31,2.31,0,0,0,381,202.22Z"/><path class="cls-4" d="M372.14,225.61a3.25,3.25,0,1,0-3.45,3A3.25,3.25,0,0,0,372.14,225.61Z"/><path class="cls-5" d="M399.12,217.12a3.26,3.26,0,1,0-3.46,3A3.26,3.26,0,0,0,399.12,217.12Z"/><path class="cls-4" d="M391.21,235.79a2.58,2.58,0,1,0-2.74,2.4A2.57,2.57,0,0,0,391.21,235.79Z"/><path class="cls-4" d="M369.69,225.45a.79.79,0,0,0-1.58-.1.79.79,0,0,0,1.58.1Z"/><path class="cls-2" d="M398.79,217.09a2.93,2.93,0,1,0-3.11,2.73A2.92,2.92,0,0,0,398.79,217.09Z"/><path class="cls-3" d="M394.21,180.32a.85.85,0,0,0-.8-.91.85.85,0,1,0,.8.91Z"/><path class="cls-4" d="M380.67,202.2a2,2,0,1,0-2.15,1.9A2,2,0,0,0,380.67,202.2Z"/><path class="cls-2" d="M397.4,217a1.53,1.53,0,1,0-1.63,1.44A1.53,1.53,0,0,0,397.4,217Z"/><path class="cls-4" d="M411.29,224.11a1.81,1.81,0,1,0-1.92,1.69A1.81,1.81,0,0,0,411.29,224.11Z"/><path class="cls-2" d="M389,235.65a.32.32,0,1,0-.33.29A.31.31,0,0,0,389,235.65Z"/><path class="cls-2" d="M97.53,163.22a1.37,1.37,0,1,0-1.45,1.28A1.37,1.37,0,0,0,97.53,163.22Z"/><path class="cls-2" d="M69.61,161.64a1,1,0,1,0-1.09,1A1,1,0,0,0,69.61,161.64Z"/><path class="cls-2" d="M55,177.49a1.39,1.39,0,1,0-1.48,1.3A1.39,1.39,0,0,0,55,177.49Z"/><path class="cls-2" d="M98,163.25a1.79,1.79,0,0,0-1.68-1.92A1.8,1.8,0,1,0,98,163.25Z"/><path class="cls-5" d="M86.44,206.72a.87.87,0,1,0-.92.81A.87.87,0,0,0,86.44,206.72Z"/><path class="cls-2" d="M54.25,177.44a.61.61,0,0,0-.58-.66.62.62,0,1,0-.08,1.24A.61.61,0,0,0,54.25,177.44Z"/><path class="cls-5" d="M97.27,163.2a1.11,1.11,0,1,0-1.18,1A1.11,1.11,0,0,0,97.27,163.2Z"/><path class="cls-4" d="M104.93,151a1.33,1.33,0,0,0-1.24-1.41,1.31,1.31,0,0,0-1.4,1.23,1.32,1.32,0,0,0,2.64.18Z"/><path class="cls-4" d="M69.08,161.6a.49.49,0,0,0-.46-.52.49.49,0,1,0,.46.52Z"/><path class="cls-2" d="M97.7,163.23a1.54,1.54,0,1,0-1.64,1.44A1.54,1.54,0,0,0,97.7,163.23Z"/><path class="cls-4" d="M137.26,184.65a1.53,1.53,0,1,0-1.63,1.43A1.53,1.53,0,0,0,137.26,184.65Z"/><path class="cls-5" d="M88.44,206.86a2.88,2.88,0,1,0-3,2.68A2.86,2.86,0,0,0,88.44,206.86Z"/><path class="cls-4" d="M97.9,163.24a1.74,1.74,0,1,0-1.85,1.63A1.74,1.74,0,0,0,97.9,163.24Z"/><path class="cls-2" d="M137.41,184.66a1.68,1.68,0,1,0-1.79,1.57A1.68,1.68,0,0,0,137.41,184.66Z"/><path class="cls-2" d="M104.22,150.9a.61.61,0,0,0-.57-.65.61.61,0,1,0-.08,1.22A.6.6,0,0,0,104.22,150.9Z"/><path class="cls-2" d="M261,180.56a.52.52,0,1,0-1-.06.52.52,0,1,0,1,.06Z"/><path class="cls-4" d="M272.89,148.2a1,1,0,1,0-1,.91A1,1,0,0,0,272.89,148.2Z"/><path class="cls-2" d="M233.46,168a1.43,1.43,0,1,0-1.52,1.33A1.42,1.42,0,0,0,233.46,168Z"/><path class="cls-4" d="M261.82,180.62a1.35,1.35,0,1,0-1.43,1.26A1.35,1.35,0,0,0,261.82,180.62Z"/><path class="cls-3" d="M294.73,174.3a.31.31,0,1,0-.33.29A.32.32,0,0,0,294.73,174.3Z"/><path class="cls-3" d="M273.61,148.24a1.69,1.69,0,0,0-3.38-.22,1.69,1.69,0,1,0,3.38.22Z"/><path class="cls-4" d="M263.67,180.74a3.2,3.2,0,1,0-3.4,3A3.19,3.19,0,0,0,263.67,180.74Z"/><path class="cls-2" d="M304.42,182a1.64,1.64,0,1,0-1.75,1.53A1.65,1.65,0,0,0,304.42,182Z"/><path class="cls-5" d="M281.46,217.9a.65.65,0,0,0-.6-.68.64.64,0,0,0-.68.6.63.63,0,0,0,.6.68A.65.65,0,0,0,281.46,217.9Z"/><path class="cls-2" d="M262.11,180.64a1.64,1.64,0,1,0-1.74,1.52A1.64,1.64,0,0,0,262.11,180.64Z"/><path class="cls-2" d="M305.82,182.06a3,3,0,1,0-3.24,2.84A3,3,0,0,0,305.82,182.06Z"/><path class="cls-4" d="M295.48,174.35a1.07,1.07,0,1,0-1.13,1A1.06,1.06,0,0,0,295.48,174.35Z"/><path class="cls-4" d="M156.82,55a1.87,1.87,0,1,0-2,1.75A1.88,1.88,0,0,0,156.82,55Z"/><path class="cls-4" d="M155.4,54.93a.44.44,0,0,0-.42-.48.46.46,0,0,0-.49.42.47.47,0,0,0,.43.49A.46.46,0,0,0,155.4,54.93Z"/><path class="cls-3" d="M126.48,71.76a.31.31,0,0,0-.29-.33.31.31,0,0,0-.33.29.33.33,0,0,0,.29.34A.31.31,0,0,0,126.48,71.76Z"/><path class="cls-2" d="M155.71,55a.76.76,0,0,0-1.52-.1.76.76,0,0,0,1.52.1Z"/><path class="cls-4" d="M162.69,11.66a2.22,2.22,0,1,0-2.36,2.07A2.23,2.23,0,0,0,162.69,11.66Z"/><path class="cls-4" d="M158.1,55.11a3.16,3.16,0,1,0-3.36,2.94A3.16,3.16,0,0,0,158.1,55.11Z"/><path class="cls-4" d="M154,81.79a.67.67,0,1,0-1.33-.09.66.66,0,0,0,.62.71A.67.67,0,0,0,154,81.79Z"/><path class="cls-3" d="M127.18,71.81a1,1,0,1,0-1.08.94A1,1,0,0,0,127.18,71.81Z"/><path class="cls-3" d="M156.37,55a1.42,1.42,0,1,0-1.51,1.33A1.42,1.42,0,0,0,156.37,55Z"/><path class="cls-3" d="M182.25,71.11a.67.67,0,0,0-.63-.72.68.68,0,0,0-.73.63.69.69,0,0,0,.64.73A.68.68,0,0,0,182.25,71.11Z"/><path class="cls-4" d="M153.85,81.77a.5.5,0,0,0-.46-.52.49.49,0,0,0-.07,1A.5.5,0,0,0,153.85,81.77Z"/><path class="cls-2" d="M156.47,55a1.52,1.52,0,1,0-1.62,1.43A1.52,1.52,0,0,0,156.47,55Z"/><path class="cls-3" d="M172.44,15.87a.71.71,0,1,0-.75.66A.7.7,0,0,0,172.44,15.87Z"/><path class="cls-4" d="M162,11.61a1.56,1.56,0,1,0-1.66,1.46A1.57,1.57,0,0,0,162,11.61Z"/><path class="cls-2" d="M155.79,55a.84.84,0,1,0-.9.79A.84.84,0,0,0,155.79,55Z"/><path class="cls-2" d="M182.11,71.1a.54.54,0,1,0-.57.5A.53.53,0,0,0,182.11,71.1Z"/><path class="cls-2" d="M174.1,16a2.37,2.37,0,1,0-2.52,2.21A2.37,2.37,0,0,0,174.1,16Z"/><path class="cls-4" d="M247.65,189.71a.74.74,0,1,0-.79.69A.75.75,0,0,0,247.65,189.71Z"/><path class="cls-5" d="M235.76,168.19a3.73,3.73,0,1,0-4,3.47A3.74,3.74,0,0,0,235.76,168.19Z"/><path class="cls-2" d="M218.46,207.23a1.16,1.16,0,0,0-1.09-1.23,1.16,1.16,0,0,0-.15,2.32A1.17,1.17,0,0,0,218.46,207.23Z"/><path class="cls-3" d="M247.94,189.73a1,1,0,1,0-1.1,1A1,1,0,0,0,247.94,189.73Z"/><path class="cls-2" d="M247.58,216.17a1.92,1.92,0,1,0-2,1.79A1.92,1.92,0,0,0,247.58,216.17Z"/><path class="cls-3" d="M220,207.33a2.68,2.68,0,1,0-2.85,2.5A2.68,2.68,0,0,0,220,207.33Z"/><path class="cls-4" d="M247.49,189.7a.58.58,0,0,0-.54-.62.58.58,0,0,0-.08,1.15A.59.59,0,0,0,247.49,189.7Z"/><path class="cls-4" d="M261.71,180.61a1.24,1.24,0,1,0-1.31,1.15A1.23,1.23,0,0,0,261.71,180.61Z"/><path class="cls-2" d="M233.2,168a1.17,1.17,0,1,0-1.24,1.09A1.17,1.17,0,0,0,233.2,168Z"/><path class="cls-5" d="M247.17,189.68a.27.27,0,0,0-.24-.29.27.27,0,0,0,0,.53A.25.25,0,0,0,247.17,189.68Z"/><path class="cls-4" d="M256.37,215.67a.72.72,0,1,0-.76.66A.72.72,0,0,0,256.37,215.67Z"/><path class="cls-4" d="M247.46,216.16a1.8,1.8,0,1,0-1.91,1.68A1.81,1.81,0,0,0,247.46,216.16Z"/><path class="cls-4" d="M247.47,189.69a.55.55,0,0,0-.52-.59.56.56,0,0,0-.08,1.12A.57.57,0,0,0,247.47,189.69Z"/><path class="cls-2" d="M281.74,217.92a.93.93,0,1,0-1,.86A.92.92,0,0,0,281.74,217.92Z"/><path class="cls-4" d="M256.18,215.66a.53.53,0,1,0-.56.49A.53.53,0,0,0,256.18,215.66Z"/><path class="cls-2" d="M249.23,189.81a2.32,2.32,0,1,0-2.47,2.17A2.32,2.32,0,0,0,249.23,189.81Z"/><path class="cls-2" d="M281.33,217.89a.51.51,0,0,0-.48-.54.51.51,0,0,0-.07,1A.52.52,0,0,0,281.33,217.89Z"/><path class="cls-2" d="M261.41,180.59a.94.94,0,1,0-1,.88A.94.94,0,0,0,261.41,180.59Z"/><path class="cls-4" d="M78,236.45a.66.66,0,1,0-1.31-.08.66.66,0,0,0,.61.7A.67.67,0,0,0,78,236.45Z"/><path class="cls-3" d="M43.58,227.89a.35.35,0,0,0-.33-.38.36.36,0,0,0-.39.33.37.37,0,0,0,.34.39A.36.36,0,0,0,43.58,227.89Z"/><path class="cls-4" d="M39.45,254.56a1.45,1.45,0,1,0-1.54,1.36A1.46,1.46,0,0,0,39.45,254.56Z"/><path class="cls-2" d="M78.24,236.47a.94.94,0,1,0-1,.87A.93.93,0,0,0,78.24,236.47Z"/><path class="cls-2" d="M62.65,264.42a.3.3,0,0,0-.28-.32.3.3,0,0,0-.32.28.3.3,0,0,0,.28.33A.3.3,0,0,0,62.65,264.42Z"/><path class="cls-4" d="M39.15,254.54a1.15,1.15,0,0,0-2.29-.15,1.15,1.15,0,1,0,2.29.15Z"/><path class="cls-4" d="M78.54,236.49a1.24,1.24,0,1,0-1.32,1.15A1.23,1.23,0,0,0,78.54,236.49Z"/><path class="cls-5" d="M64.09,218.14a2.36,2.36,0,1,0-2.5,2.19A2.36,2.36,0,0,0,64.09,218.14Z"/><path class="cls-5" d="M44.27,227.94a1.05,1.05,0,1,0-1.12,1A1.07,1.07,0,0,0,44.27,227.94Z"/><path class="cls-4" d="M78.7,236.5a1.4,1.4,0,1,0-1.49,1.31A1.4,1.4,0,0,0,78.7,236.5Z"/><path class="cls-3" d="M75.94,223a1.71,1.71,0,1,0-1.82,1.6A1.7,1.7,0,0,0,75.94,223Z"/><path class="cls-2" d="M63.23,218.09a1.49,1.49,0,1,0-1.59,1.39A1.49,1.49,0,0,0,63.23,218.09Z"/><path class="cls-4" d="M79.53,236.55a2.23,2.23,0,1,0-2.37,2.09A2.23,2.23,0,0,0,79.53,236.55Z"/><path class="cls-4" d="M120.36,232a1,1,0,0,0-.94-1.07,1,1,0,0,0-1.07.94,1,1,0,0,0,.94,1.07A1,1,0,0,0,120.36,232Z"/><path class="cls-5" d="M64.44,264.54a2.09,2.09,0,1,0-2.23,1.95A2.09,2.09,0,0,0,64.44,264.54Z"/><path class="cls-4" d="M79.21,236.53a1.91,1.91,0,1,0-2,1.79A1.91,1.91,0,0,0,79.21,236.53Z"/><path class="cls-2" d="M121.68,232a2.32,2.32,0,1,0-2.47,2.17A2.33,2.33,0,0,0,121.68,232Z"/><path class="cls-3" d="M74.75,222.89a.52.52,0,0,0-.48-.55.52.52,0,1,0-.07,1A.51.51,0,0,0,74.75,222.89Z"/><path class="cls-5" d="M306.51,281.05a1.19,1.19,0,1,0-1.26,1.11A1.19,1.19,0,0,0,306.51,281.05Z"/><path class="cls-2" d="M308.52,246.61a1.11,1.11,0,1,0-1.18,1A1.1,1.1,0,0,0,308.52,246.61Z"/><path class="cls-2" d="M291.17,270a.63.63,0,1,0-.67.59A.63.63,0,0,0,291.17,270Z"/><path class="cls-4" d="M306.29,281a1,1,0,0,0-.9-1,1,1,0,1,0,.9,1Z"/><path class="cls-3" d="M353.48,249.19a.68.68,0,0,0-1.36-.09.68.68,0,0,0,1.36.09Z"/><path class="cls-2" d="M309.52,246.68a2.11,2.11,0,0,0-2-2.24,2.1,2.1,0,1,0,2,2.24Z"/><path class="cls-3" d="M306.19,281a.87.87,0,1,0-.92.81A.86.86,0,0,0,306.19,281Z"/><path class="cls-4" d="M353.32,249.18a.52.52,0,0,0-.49-.55.51.51,0,0,0-.55.48.53.53,0,0,0,.49.55A.52.52,0,0,0,353.32,249.18Z"/><path class="cls-4" d="M330.09,298.57a1.08,1.08,0,1,0-1.14,1A1.08,1.08,0,0,0,330.09,298.57Z"/></svg>